{
.appVersion = "3337";
.formatVersion = 3;
DisplayStrings = (
"Saguaro wefting pigmoid homuncles provocative 150 sacculated Tremors decarbed elastomers eagle-winged, coarctate tarweeds palters carract. revealings maybe argands undreamed-of reconnoiterer Putney stilbestrol secondee commonalities Ross Apician footings superordinates airlifts dharmas sea-mouse brokenness encompassed throned thyroidectomy denazifies stronghead grandparents",
" ",
" ",
A,
"/adore.bold",
B,
PB,
"/adore.italic"
);
date = "2025-02-21 16:21:33 +0000";
familyName = "Lateinisch-ish";
fontMaster = (
{
id = m01;
metricValues = (
{
over = 16;
pos = 800;
},
{
over = 16;
pos = 752;
},
{
over = 11;
pos = 494;
},
{
over = -16;
},
{
over = -16;
pos = -254;
},
{
},
{
pos = 708;
}
);
name = Regular;
userData = {
GSCornerRadius = 15;
GSExtrudeAngle = 30;
GSExtrudeOffset = 15;
GSOffsetHorizontal = 0;
GSOffsetVertical = -9;
};
}
);
glyphs = (
{
glyphname = A;
lastChange = "2025-03-06 18:18:07 +0000";
layers = (
{
hints = (
{
name = _corner.leftBottomSerif;
origin = (0,21);
type = Corner;
},
{
name = _corner.rightBottomSerif;
options = 1;
origin = (0,22);
type = Corner;
},
{
name = _corner.rightBottomSerif;
origin = (0,0);
scale = (1,-1);
type = Corner;
},
{
name = _corner.leftBottomSerif;
options = 1;
origin = (0,1);
scale = (1,-1);
type = Corner;
}
);
layerId = m01;
shapes = (
{
closed = 1;
nodes = (
(570,0,l),
(651,0,l),
(435,661,ls),
(416,720,o),
(409,762,o),
(379,762,cs),
(355,762,o),
(352,742,o),
(335,729,cs),
(312,711,o),
(285,708,o),
(274,708,cs),
(264,708,o),
(259,702,o),
(259,695,cs),
(259,689,o),
(264,682,o),
(274,682,cs),
(313,682,o),
(318,665,o),
(312,649,cs),
(64,0,l),
(119,0,l),
(377,689,l),
(351,689,l)
);
},
{
closed = 1;
nodes = (
(193,242,l),
(506,242,l),
(506,281,l),
(193,281,l)
);
}
);
width = 717;
}
);
unicode = 65;
},
{
glyphname = B;
lastChange = "2025-03-10 02:09:05 +0000";
layers = (
{
backgroundImage = {
imagePath = "specimen-images/12pt-capB.jpg";
locked = 1;
pos = (23,-214);
scale = (10.7,10.7);
};
hints = (
{
name = _corner.leftBottomSerif;
origin = (0,14);
type = Corner;
},
{
name = _corner.leftBottomSerif;
options = 1;
origin = (0,13);
scale = (-1,1);
type = Corner;
}
);
layerId = m01;
shapes = (
{
closed = 1;
nodes = (
(365,-2,l),
(527,-4,o),
(660,69,o),
(660,212,cs),
(660,324,o),
(573,388,o),
(457,409,c),
(543,432,o),
(601,491,o),
(601,582,cs),
(601,704,o),
(498,765,o),
(360,763,cs),
(126,760,l),
(126,0,l)
);
},
{
closed = 1;
nodes = (
(206,715,l),
(206,725,l),
(360,728,ls),
(469,730,o),
(530,699,o),
(530,588,cs),
(530,448,o),
(449,426,o),
(336,427,cs),
(206,428,l)
);
},
{
closed = 1;
nodes = (
(206,44,l),
(206,391,l),
(365,393,ls),
(494,395,o),
(580,340,o),
(580,215,cs),
(580,55,o),
(494,34,o),
(365,34,cs),
(206,34,l)
);
}
);
width = 705;
}
);
unicode = 66;
},
{
glyphname = C;
lastChange = "2025-03-09 03:17:33 +0000";
layers = (
{
backgroundImage = {
imagePath = "specimen-images/12pt-capC.jpg";
locked = 1;
pos = (-3,-227);
scale = (10.7,10.7);
};
layerId = m01;
shapes = (
{
closed = 1;
nodes = (
(680,686,l),
(609,756,o),
(512,768,o),
(411,768,cs),
(209,768,o),
(45,602,o),
(45,377,cs),
(45,152,o),
(209,-14,o),
(411,-14,cs),
(512,-14,o),
(609,-2,o),
(680,68,c),
(680,189,l),
(680,200,o),
(666,205,o),
(659,189,cs),
(608,74,o),
(525,26,o),
(411,26,cs),
(249,26,o),
(130,174,o),
(130,377,cs),
(130,580,o),
(249,728,o),
(411,728,cs),
(525,728,o),
(609,681,o),
(659,565,cs),
(666,549,o),
(680,556,o),
(680,565,c)
);
}
);
width = 722;
}
);
metricLeft = "=O";
unicode = 67;
},
{
glyphname = D;
lastChange = "2025-03-09 03:16:59 +0000";
layers = (
{
backgroundImage = {
imagePath = "specimen-images/12pt-capD.jpg";
locked = 1;
pos = (31,-220);
scale = (10.7,10.7);
};
hints = (
{
name = _corner.leftBottomSerif;
origin = (0,0);
type = Corner;
},
{
name = _corner.leftBottomSerif;
options = 1;
origin = (0,9);
scale = (-1,1);
type = Corner;
}
);
layerId = m01;
shapes = (
{
closed = 1;
nodes = (
(127,0,l),
(259,0,l),
(405,-3,ls),
(606,-7,o),
(770,156,o),
(770,381,cs),
(770,596,o),
(606,757,o),
(405,755,cs),
(127,752,l)
);
},
{
closed = 1;
nodes = (
(207,707,l),
(405,710,ls),
(565,712,o),
(684,576,o),
(685,383,c),
(684,130,o),
(565,42,o),
(405,42,c),
(207,44,l)
);
}
);
width = 815;
}
);
metricLeft = "=H";
metricRight = "=O";
unicode = 68;
},
{
glyphname = E;
lastChange = "2025-03-09 03:18:10 +0000";
layers = (
{
backgroundImage = {
imagePath = "specimen-images/12pt-capE.jpg";
locked = 1;
pos = (13,-219);
scale = (10.7,10.7);
};
hints = (
{
name = _corner.rightBottomSerif;
origin = (0,51);
type = Corner;
},
{
name = _corner.leftBottomSerif;
origin = (0,54);
type = Corner;
},
{
name = _corner.rightBottomSerif;
origin = (0,52);
type = Corner;
}
);
layerId = m01;
shapes = (
{
closed = 1;
nodes = (
(605,0,ls),
(611,0,o),
(615,3,o),
(616,8,cs),
(626,53,o),
(641,99,o),
(660,140,cs),
(666,153,o),
(648,165,o),
(639,153,cs),
(591,92,o),
(541,38,o),
(521,38,cs),
(206,32,l),
(209,427,l),
(209,426,l),
(421,423,ls),
(476,422,o),
(505,397,o),
(505,361,cs),
(505,345,o),
(529,345,o),
(529,361,cs),
(529,397,o),
(527,401,o),
(527,449,cs),
(527,483,o),
(529,488,o),
(529,524,cs),
(529,540,o),
(505,540,o),
(505,524,cs),
(505,488,o),
(476,463,o),
(421,462,cs),
(209,459,l),
(209,718,l),
(487,718,ls),
(517,718,o),
(554,688,o),
(602,627,cs),
(611,615,o),
(629,627,o),
(623,640,cs),
(608,673,o),
(599,709,o),
(592,746,cs),
(591,751,o),
(587,754,o),
(581,754,cs),
(581,754,o),
(127,752,o),
(127,752,c),
(127,48,l),
(132,0,l)
);
}
);
width = 714;
}
);
metricLeft = "=H";
unicode = 69;
},
{
glyphname = F;
lastChange = "2025-03-09 03:18:27 +0000";
layers = (
{
backgroundImage = {
imagePath = "specimen-images/12pt-capF.jpg";
locked = 1;
pos = (23,-220);
scale = (10.7,10.7);
};
hints = (
{
name = _corner.rightBottomSerif;
origin = (0,37);
type = Corner;
},
{
name = _corner.rightBottomSerif;
origin = (0,37);
type = Corner;
},
{
name = _corner.leftBottomSerif;
origin = (0,40);
type = Corner;
},
{
name = _corner.rightBottomSerif;
origin = (0,0);
type = Corner;
},
{
name = _corner.rightBottomSerif;
origin = (0,38);
type = Corner;
}
);
layerId = m01;
shapes = (
{
closed = 1;
nodes = (
(204,0,l),
(202,424,l),
(424,421,ls),
(466,420,o),
(505,397,o),
(505,358,cs),
(505,345,o),
(526,345,o),
(526,358,cs),
(526,397,o),
(524,401,o),
(524,449,cs),
(524,483,o),
(526,488,o),
(526,527,cs),
(526,540,o),
(505,540,o),
(505,527,cs),
(505,488,o),
(466,465,o),
(424,464,cs),
(202,461,l),
(203,713,l),
(485,713,ls),
(515,713,o),
(552,688,o),
(600,627,cs),
(609,615,o),
(627,627,o),
(621,640,cs),
(606,673,o),
(597,709,o),
(590,746,cs),
(589,751,o),
(585,754,o),
(579,754,cs),
(579,754,o),
(127,752,o),
(127,752,c),
(127,48,l),
(128,0,l)
);
}
);
width = 647;
}
);
unicode = 70;
},
{
glyphname = G;
lastChange = "2025-03-09 03:19:20 +0000";
layers = (
{
backgroundImage = {
imagePath = "specimen-images/12pt-capG.jpg";
locked = 1;
pos = (-17,-223);
scale = (10.7,10.7);
};
hints = (
{
name = _corner.rightBottomSerif;
options = 1;
origin = (2,1);
scale = (1,-1);
type = Corner;
},
{
name = _corner.leftBottomSerif;
options = 1;
origin = (2,2);
scale = (-1,1);
type = Corner;
}
);
layerId = m01;
shapes = (
{
closed = 1;
nodes = (
(130,377,l),
(130,580,o),
(260,733,o),
(422,733,cs),
(532,733,o),
(598,677,o),
(648,561,cs),
(655,545,o),
(670,552,o),
(670,561,c),
(670,682,l),
(599,752,o),
(518,768,o),
(421,768,cs),
(219,768,o),
(45,602,o),
(45,377,c)
);
},
{
closed = 1;
nodes = (
(722,102,o),
(694,115,o),
(665,128,c),
(630,82,o),
(568,21,o),
(431,21,cs),
(269,21,o),
(130,174,o),
(130,377,cs),
(130,377,o),
(130,377,o),
(130,377,cs),
(45,377,ls),
(45,377,o),
(45,377,o),
(45,377,cs),
(45,152,o),
(229,-14,o),
(431,-14,cs),
(578,-14,o),
(700,42,o),
(751,89,c)
);
},
{
closed = 1;
nodes = (
(705,64,l),
(705,444,l),
(635,444,l),
(635,64,l)
);
}
);
width = 823;
}
);
unicode = 71;
},
{
glyphname = H;
lastChange = "2025-03-09 03:22:23 +0000";
layers = (
{
backgroundImage = {
imagePath = "specimen-images/12pt-capH.jpg";
locked = 1;
pos = (24,-219);
scale = (10.7,10.7);
};
hints = (
{
name = _corner.leftBottomSerif;
origin = (0,0);
type = Corner;
},
{
name = _corner.rightBottomSerif;
origin = (0,1);
type = Corner;
},
{
name = _corner.leftBottomSerif;
origin = (1,0);
type = Corner;
},
{
name = _corner.rightBottomSerif;
origin = (1,1);
type = Corner;
},
{
name = _corner.leftBottomSerif;
origin = (0,0);
type = Corner;
},
{
name = _corner.leftBottomSerif;
options = 1;
origin = (0,3);
scale = (-1,1);
type = Corner;
},
{
name = _corner.rightBottomSerif;
options = 1;
origin = (0,2);
scale = (1,-1);
type = Corner;
},
{
name = _corner.leftBottomSerif;
options = 1;
origin = (1,0);
scale = (1,-1);
type = Corner;
},
{
name = _corner.leftBottomSerif;
options = 1;
origin = (1,3);
scale = (1,-1);
type = Corner;
},
{
name = _corner.rightBottomSerif;
options = 1;
origin = (1,2);
scale = (1,-1);
type = Corner;
}
);
layerId = m01;
shapes = (
{
closed = 1;
nodes = (
(126,0,l),
(206,0,l),
(206,752,l),
(126,752,l)
);
},
{
closed = 1;
nodes = (
(626,0,l),
(707,0,l),
(707,752,l),
(626,752,l)
);
},
{
closed = 1;
nodes = (
(190,425,l),
(650,425,l),
(650,468,l),
(190,468,l)
);
}
);
width = 834;
}
);
unicode = 72;
},
{
glyphname = I;
lastChange = "2025-03-09 03:19:34 +0000";
layers = (
{
backgroundImage = {
imagePath = "specimen-images/12pt-capI.jpg";
locked = 1;
pos = (15,-223);
scale = (10.7,10.7);
};
hints = (
{
name = _corner.leftBottomSerif;
origin = (0,0);
type = Corner;
},
{
name = _corner.rightBottomSerif;
origin = (0,1);
type = Corner;
},
{
name = _corner.rightBottomSerif;
options = 1;
origin = (0,2);
scale = (1,-1);
type = Corner;
},
{
name = _corner.leftBottomSerif;
options = 1;
origin = (0,3);
scale = (-1,1);
type = Corner;
}
);
layerId = m01;
shapes = (
{
closed = 1;
nodes = (
(122,0,l),
(202,0,l),
(202,752,l),
(122,752,l)
);
}
);
width = 325;
}
);
unicode = 73;
},
{
glyphname = J;
lastChange = "2025-03-09 03:22:07 +0000";
layers = (
{
backgroundImage = {
imagePath = "specimen-images/12pt-capJ.jpg";
locked = 1;
pos = (-23,-233);
scale = (10.7,10.7);
};
hints = (
{
name = _corner.rightBottomSerif;
options = 1;
origin = (0,22);
scale = (1,-1);
type = Corner;
},
{
name = _corner.leftBottomSerif;
options = 1;
origin = (0,23);
scale = (-1,1);
type = Corner;
}
);
layerId = m01;
shapes = (
{
closed = 1;
nodes = (
(280,160,ls),
(280,93,o),
(262,19,o),
(192,19,cs),
(118,19,o),
(100,52,o),
(100,78,cs),
(100,90,o),
(108,98,o),
(108,111,cs),
(108,135,o),
(91,158,o),
(64,158,cs),
(33,158,o),
(20,135,o),
(20,110,cs),
(20,40,o),
(96,-16,o),
(192,-16,cs),
(295,-16,o),
(359,55,o),
(359,187,cs),
(359,752,l),
(279,752,l)
);
}
);
width = 477;
}
);
unicode = 74;
},
{
glyphname = K;
lastChange = "2025-03-09 03:22:46 +0000";
layers = (
{
backgroundImage = {
imagePath = "specimen-images/12pt-capK.jpg";
locked = 1;
pos = (-7,-220);
scale = (10.7,10.7);
};
hints = (
{
name = _corner.rightBottomSerif;
origin = (0,1);
scale = (1,-1);
type = Corner;
},
{
name = _corner.leftBottomSerif;
options = 1;
origin = (0,2);
scale = (-1,1);
type = Corner;
},
{
name = _corner.leftBottomSerif;
origin = (2,0);
type = Corner;
},
{
name = _corner.rightBottomSerif;
origin = (2,1);
type = Corner;
},
{
name = _corner.rightBottomSerif;
options = 1;
origin = (2,2);
scale = (1,-1);
type = Corner;
},
{
name = _corner.leftBottomSerif;
options = 1;
origin = (2,3);
scale = (-1,1);
type = Corner;
}
);
layerId = m01;
shapes = (
{
closed = 1;
nodes = (
(168,281,l),
(689,752,l),
(639,752,l),
(151,299,l)
);
},
{
closed = 1;
nodes = (
(738,-98,o),
(750,-79,o),
(731,-64,c),
(589,83,o),
(438,332,o),
(368,472,c),
(310,414,l),
(391,265,o),
(567,-1,o),
(715,-85,cs)
);
},
{
closed = 1;
nodes = (
(122,0,l),
(202,0,l),
(202,752,l),
(122,752,l)
);
}
);
width = 723;
}
);
unicode = 75;
},
{
glyphname = L;
lastChange = "2025-03-09 03:23:01 +0000";
layers = (
{
backgroundImage = {
imagePath = "specimen-images/12pt-capL.jpg";
locked = 1;
pos = (26,-218);
scale = (10.7,10.7);
};
hints = (
{
name = _corner.rightBottomSerif;
origin = (0,15);
type = Corner;
},
{
name = _corner.rightBottomSerif;
origin = (0,15);
type = Corner;
},
{
name = _corner.leftBottomSerif;
origin = (0,17);
type = Corner;
},
{
name = _corner.leftBottomSerif;
origin = (0,14);
type = Corner;
}
);
layerId = m01;
shapes = (
{
closed = 1;
nodes = (
(561,0,ls),
(567,0,o),
(571,3,o),
(572,8,cs),
(582,53,o),
(597,99,o),
(616,140,cs),
(622,153,o),
(604,165,o),
(595,153,cs),
(547,92,o),
(497,48,o),
(477,48,cs),
(197,42,l),
(200,752,l),
(123,752,l),
(123,48,l),
(124,0,l)
);
}
);
width = 632;
}
);
unicode = 76;
},
{
glyphname = M;
lastChange = "2025-03-09 03:23:12 +0000";
layers = (
{
backgroundImage = {
imagePath = "specimen-images/12pt-capM.jpg";
locked = 1;
pos = (2,-220);
scale = (10.7,10.7);
};
hints = (
{
name = _corner.leftBottomSerif;
origin = (0,0);
type = Corner;
},
{
name = _corner.rightBottomSerif;
options = 1;
origin = (0,1);
type = Corner;
},
{
name = _corner.leftBottomSerif;
options = 1;
origin = (2,2);
scale = (1,-1);
type = Corner;
},
{
name = _corner.rightBottomSerif;
origin = (2,1);
scale = (-1,1);
type = Corner;
}
);
layerId = m01;
shapes = (
{
closed = 1;
nodes = (
(76,0,l),
(126,0,l),
(224,742,l),
(174,742,l)
);
},
{
closed = 1;
nodes = (
(469,56,l),
(711,694,l),
(744,704,l),
(753,717,o),
(790,727,o),
(829,727,cs),
(850,727,o),
(850,759,o),
(829,759,cs),
(790,759,o),
(772,754,o),
(736,754,cs),
(721,754,o),
(695,757,o),
(680,757,c),
(470,205,l),
(243,750,l),
(228,750,o),
(212,747,o),
(197,747,cs),
(161,747,o),
(143,752,o),
(104,752,cs),
(83,752,o),
(83,720,o),
(104,720,cs),
(143,720,o),
(180,710,o),
(189,697,c),
(440,56,l)
);
},
{
closed = 1;
nodes = (
(677,742,l),
(775,0,l),
(856,0,l),
(758,742,l)
);
}
);
width = 932;
}
);
unicode = 77;
},
{
glyphname = N;
lastChange = "2025-03-03 21:30:29 +0000";
layers = (
{
backgroundImage = {
imagePath = "specimen-images/10pt-capN.jpg";
locked = 1;
pos = (20,-334);
scale = (12.934,12.934);
};
hints = (
{
name = _corner.leftBottomSerif;
origin = (0,0);
type = Corner;
},
{
name = _corner.rightBottomSerif;
options = 1;
origin = (0,1);
type = Corner;
},
{
name = _corner.leftBottomSerif;
origin = (2,0);
type = Corner;
},
{
name = _corner.rightBottomSerif;
options = 1;
origin = (2,1);
type = Corner;
}
);
layerId = m01;
shapes = (
{
closed = 1;
nodes = (
(145,0,l),
(195,0,l),
(192,742,l),
(142,742,l)
);
},
{
closed = 1;
nodes = (
(667,126,l),
(205,750,l),
(190,750,o),
(174,747,o),
(159,747,c),
(123,747,o),
(105,752,o),
(66,752,c),
(45,752,o),
(45,720,o),
(66,720,c),
(105,720,o),
(142,710,o),
(151,697,c),
(667,0,l)
);
},
{
closed = 1;
nodes = (
(714,752,l),
(664,752,l),
(667,0,l),
(717,0,l)
);
}
);
width = 836;
}
);
unicode = 78;
},
{
glyphname = O;
lastChange = "2025-03-09 03:18:49 +0000";
layers = (
{
backgroundImage = {
imagePath = "specimen-images/12pt-capO.jpg";
pos = (18970,817);
scale = (10.7,10.7);
};
layerId = m01;
shapes = (
{
closed = 1;
nodes = (
(691,174,o),
(572,26,o),
(411,26,cs),
(249,26,o),
(130,174,o),
(130,377,cs),
(130,580,o),
(249,728,o),
(411,728,cs),
(572,728,o),
(691,580,o),
(691,377,cs)
);
},
{
closed = 1;
nodes = (
(45,152,o),
(209,-14,o),
(411,-14,cs),
(612,-14,o),
(776,152,o),
(776,377,cs),
(776,602,o),
(612,768,o),
(411,768,cs),
(209,768,o),
(45,602,o),
(45,377,cs)
);
},
{
closed = 1;
nodes = (
(691,174,o),
(572,26,o),
(411,26,cs),
(249,26,o),
(130,174,o),
(130,377,cs),
(130,580,o),
(249,728,o),
(411,728,cs),
(572,728,o),
(691,580,o),
(691,377,cs)
);
},
{
closed = 1;
nodes = (
(45,152,o),
(209,-14,o),
(411,-14,cs),
(612,-14,o),
(776,152,o),
(776,377,cs),
(776,602,o),
(612,768,o),
(411,768,cs),
(209,768,o),
(45,602,o),
(45,377,cs)
);
}
);
width = 821;
}
);
metricRight = "=|";
unicode = 79;
},
{
glyphname = P;
lastChange = "2025-03-10 02:09:22 +0000";
layers = (
{
backgroundImage = {
imagePath = "specimen-images/12pt-capP.jpg";
locked = 1;
pos = (1,-219);
scale = (10.7,10.7);
};
hints = (
{
name = _corner.leftBottomSerif;
options = 1;
origin = (0,12);
scale = (-1,1);
type = Corner;
},
{
name = _corner.leftBottomSerif;
origin = (0,13);
type = Corner;
},
{
name = _corner.rightBottomSerif;
origin = (0,14);
type = Corner;
}
);
layerId = m01;
shapes = (
{
closed = 1;
nodes = (
(544,401,o),
(458,343,o),
(377,345,cs),
(194,348,l),
(194,311,l),
(377,311,ls),
(498,311,o),
(616,380,o),
(616,527,c),
(616,674,o),
(498,763,o),
(357,762,cs),
(123,760,l),
(123,0,l),
(203,-1,l),
(203,725,l),
(357,727,ls),
(468,728,o),
(544,653,o),
(544,527,c)
);
}
);
width = 656;
}
);
unicode = 80;
},
{
glyphname = Q;
lastChange = "2025-03-09 03:23:59 +0000";
layers = (
{
backgroundImage = {
imagePath = "specimen-images/12pt-capQ.jpg";
locked = 1;
pos = (16,-215);
scale = (10.7,10.7);
};
layerId = m01;
shapes = (
{
closed = 1;
nodes = (
(617,-14,o),
(781,152,o),
(781,377,cs),
(781,602,o),
(617,768,o),
(416,768,cs),
(214,768,o),
(50,602,o),
(50,377,cs),
(50,152,o),
(214,-14,o),
(416,-14,cs)
);
},
{
closed = 1;
nodes = (
(718,-195,o),
(744,-157,o),
(762,-127,cs),
(769,-114,o),
(758,-103,o),
(748,-113,cs),
(726,-135,o),
(703,-148,o),
(661,-148,cs),
(602,-148,o),
(569,-92,o),
(527,-23,cs),
(468,74,o),
(467,127,o),
(326,127,cs),
(311,127,o),
(311,109,o),
(326,109,cs),
(417,109,o),
(416,35,o),
(464,-48,cs),
(518,-142,o),
(532,-195,o),
(647,-195,cs)
);
},
{
closed = 1;
nodes = (
(254,26,o),
(135,174,o),
(135,377,cs),
(135,580,o),
(254,728,o),
(416,728,cs),
(577,728,o),
(696,580,o),
(696,377,cs),
(696,174,o),
(577,26,o),
(416,26,cs)
);
}
);
width = 831;
}
);
unicode = 81;
},
{
glyphname = R;
lastChange = "2025-03-09 03:24:06 +0000";
layers = (
{
backgroundImage = {
imagePath = "specimen-images/12pt-capR.jpg";
locked = 1;
pos = (11,-223);
scale = (10.7,10.7);
};
hints = (
{
name = _corner.leftBottomSerif;
options = 1;
origin = (0,17);
scale = (-1,1);
type = Corner;
},
{
name = _corner.leftBottomSerif;
origin = (0,18);
type = Corner;
},
{
name = _corner.rightBottomSerif;
origin = (0,19);
type = Corner;
}
);
layerId = m01;
shapes = (
{
closed = 1;
nodes = (
(203,729,l),
(357,731,ls),
(468,732,o),
(544,663,o),
(544,537,cs),
(544,411,o),
(458,363,o),
(377,365,cs),
(194,368,l),
(194,331,l),
(377,331,ls),
(498,331,o),
(616,400,o),
(616,537,cs),
(616,684,o),
(498,763,o),
(357,762,cs),
(123,760,l),
(123,0,l),
(203,-1,l)
);
},
{
closed = 1;
nodes = (
(650,-88,o),
(669,-69,o),
(650,-54,c),
(502,70,o),
(445,259,o),
(430,351,c),
(351,351,l),
(378,172,o),
(466,17,o),
(627,-75,cs)
);
}
);
width = 678;
}
);
unicode = 82;
},
{
glyphname = S;
lastChange = "2025-03-07 02:18:49 +0000";
layers = (
{
backgroundImage = {
imagePath = "specimen-images/12pt-capS.jpg";
locked = 1;
pos = (-2,-223);
scale = (10.7,10.7);
};
layerId = m01;
shapes = (
{
closed = 1;
nodes = (
(169,409,o),
(31,467,o),
(31,573,cs),
(31,696,o),
(151,768,o),
(273,768,cs),
(359,768,o),
(451,728,o),
(483,711,c),
(483,576,ls),
(483,562,o),
(479,558,o),
(472,558,cs),
(465,558,o),
(461,562,o),
(457,573,cs),
(417,672,o),
(340,733,o),
(273,733,cs),
(172,733,o),
(105,663,o),
(105,591,cs),
(105,528,o),
(173,503,o),
(291,434,cs),
(396,373,o),
(512,324,o),
(512,201,cs),
(512,45,o),
(371,-20,o),
(258,-20,cs),
(151,-20,o),
(61,24,o),
(25,43,c),
(25,188,ls),
(25,202,o),
(36,208,o),
(46,208,cs),
(52,208,o),
(59,205,o),
(61,200,cs),
(105,81,o),
(112,20,o),
(258,20,cs),
(351,20,o),
(449,74,o),
(449,172,cs),
(449,263,o),
(315,332,o),
(263,359,c)
);
}
);
width = 537;
}
);
unicode = 83;
},
{
glyphname = T;
lastChange = "2025-03-09 03:25:10 +0000";
layers = (
{
backgroundImage = {
imagePath = "specimen-images/10pt-capT.jpg";
locked = 1;
pos = (-22,-343);
scale = (12.84,12.84);
};
hints = (
{
name = _corner.leftBottomSerif;
origin = (0,32);
type = Corner;
},
{
name = _corner.rightBottomSerif;
options = 1;
origin = (0,33);
type = Corner;
}
);
layerId = m01;
shapes = (
{
closed = 1;
nodes = (
(456,718,ls),
(486,718,o),
(523,688,o),
(571,627,cs),
(580,615,o),
(598,627,o),
(592,640,cs),
(577,673,o),
(568,709,o),
(561,746,cs),
(560,751,o),
(556,754,o),
(550,754,c),
(469,753,o),
(388,751,o),
(307,751,cs),
(226,751,o),
(144,753,o),
(63,754,c),
(57,754,o),
(53,751,o),
(52,746,cs),
(45,709,o),
(36,673,o),
(21,640,cs),
(15,627,o),
(33,615,o),
(42,627,cs),
(90,688,o),
(127,718,o),
(157,718,cs),
(269,718,l),
(269,0,l),
(344,0,l),
(344,718,l)
);
}
);
width = 613;
}
);
unicode = 84;
},
{
glyphname = U;
lastChange = "2025-03-09 03:25:37 +0000";
layers = (
{
backgroundImage = {
imagePath = "specimen-images/10pt-capU.jpg";
locked = 1;
pos = (3,-327);
scale = (12.84,12.84);
};
hints = (
{
name = _corner.rightBottomSerif;
options = 1;
origin = (0,1);
scale = (1,-1);
type = Corner;
},
{
name = _corner.leftBottomSerif;
options = 1;
origin = (0,2);
scale = (-1,1);
type = Corner;
},
{
name = _corner.rightBottomSerif;
options = 1;
origin = (1,1);
scale = (1,-1);
type = Corner;
},
{
name = _corner.leftBottomSerif;
options = 1;
origin = (1,2);
scale = (-1,1);
type = Corner;
}
);
layerId = m01;
shapes = (
{
closed = 1;
nodes = (
(195,253,l),
(195,752,l),
(115,752,l),
(115,253,l)
);
},
{
closed = 1;
nodes = (
(695,263,l),
(695,752,l),
(655,752,l),
(655,263,l)
);
},
{
closed = 1;
nodes = (
(655,263,l),
(655,-36,o),
(195,-77,o),
(195,253,c),
(115,253,l),
(115,-122,o),
(695,-101,o),
(695,263,c)
);
}
);
width = 811;
}
);
unicode = 85;
},
{
glyphname = V;
lastChange = "2025-03-09 03:25:54 +0000";
layers = (
{
backgroundImage = {
imagePath = "specimen-images/10pt-capV.jpg";
locked = 1;
pos = (-35,-330);
scale = (12.84,12.84);
};
hints = (
{
name = _corner.leftBottomSerif;
origin = (0,0);
type = Corner;
},
{
name = _corner.rightBottomSerif;
options = 1;
origin = (0,1);
type = Corner;
},
{
name = _corner.rightBottomSerif;
origin = (0,4);
scale = (1,-1);
type = Corner;
},
{
name = _corner.leftBottomSerif;
options = 1;
origin = (0,5);
scale = (1,-1);
type = Corner;
}
);
layerId = m01;
shapes = (
{
closed = 1;
nodes = (
(638,752,l),
(580,752,l),
(354,46,l),
(374,46,l),
(153,752,l),
(71,752,l),
(313,9,ls),
(315,4,o),
(320,1,o),
(325,1,cs),
(378,0,ls),
(383,0,o),
(388,3,o),
(390,8,cs)
);
}
);
width = 709;
}
);
metricRight = "=|";
unicode = 86;
},
{
glyphname = W;
lastChange = "2025-03-09 03:26:30 +0000";
layers = (
{
backgroundImage = {
imagePath = "specimen-images/10pt-capW.jpg";
locked = 1;
pos = (-9,-334);
scale = (12.84,12.84);
};
hints = (
{
name = _corner.leftBottomSerif;
origin = (0,0);
type = Corner;
},
{
name = _corner.rightBottomSerif;
options = 1;
origin = (0,1);
type = Corner;
},
{
name = _corner.rightBottomSerif;
origin = (0,4);
scale = (1,-1);
type = Corner;
},
{
name = _corner.leftBottomSerif;
options = 1;
origin = (0,5);
scale = (1,-1);
type = Corner;
},
{
name = _corner.rightBottomSerif;
origin = (1,3);
scale = (1,-1);
type = Corner;
},
{
name = _corner.leftBottomSerif;
options = 1;
origin = (1,4);
scale = (1,-1);
type = Corner;
}
);
layerId = m01;
shapes = (
{
closed = 1;
nodes = (
(949,752,l),
(889,752,l),
(665,46,l),
(705,46,l),
(484,752,l),
(402,752,l),
(644,9,ls),
(646,4,o),
(651,1,o),
(656,1,cs),
(689,0,ls),
(694,0,o),
(699,3,o),
(701,8,cs)
);
},
{
closed = 1;
nodes = (
(500,595,l),
(324,46,l),
(364,46,l),
(143,752,l),
(61,752,l),
(303,9,ls),
(305,4,o),
(310,1,o),
(315,1,cs),
(348,0,ls),
(353,0,o),
(358,3,o),
(360,8,cs),
(529,514,l)
);
}
);
width = 1010;
}
);
metricRight = "=|";
unicode = 87;
},
{
glyphname = X;
lastChange = "2025-03-09 03:26:43 +0000";
layers = (
{
backgroundImage = {
imagePath = "specimen-images/10pt-capX.jpg";
locked = 1;
pos = (8,-332);
scale = (12.84,12.84);
};
hints = (
{
name = _corner.leftBottomSerif;
origin = (0,0);
type = Corner;
},
{
name = _corner.rightBottomSerif;
options = 1;
origin = (0,1);
type = Corner;
},
{
name = _corner.rightBottomSerif;
origin = (0,2);
scale = (1,-1);
type = Corner;
},
{
name = _corner.leftBottomSerif;
options = 1;
origin = (0,3);
scale = (-1,1);
type = Corner;
},
{
name = _corner.leftBottomSerif;
options = 1;
origin = (2,2);
scale = (-1,1);
type = Corner;
},
{
name = _corner.rightBottomSerif;
origin = (2,1);
scale = (-1,1);
type = Corner;
},
{
name = _corner.rightBottomSerif;
options = 1;
origin = (1,2);
scale = (-1,-1);
type = Corner;
},
{
name = _corner.leftBottomSerif;
origin = (1,1);
type = Corner;
}
);
layerId = m01;
shapes = (
{
closed = 1;
nodes = (
(576,0,l),
(670,0,l),
(195,752,l),
(105,752,l)
);
},
{
closed = 1;
nodes = (
(397,397,l),
(647,752,l),
(598,752,l),
(373,430,l)
);
},
{
closed = 1;
nodes = (
(366,430,l),
(63,0,l),
(114,0,l),
(389,397,l)
);
}
);
width = 725;
}
);
unicode = 88;
},
{
glyphname = Y;
lastChange = "2025-03-07 02:11:31 +0000";
layers = (
{
backgroundImage = {
imagePath = "specimen-images/10pt-capY.jpg";
locked = 1;
pos = (2,-332);
scale = (12.84,12.84);
};
hints = (
{
name = _corner.leftBottomSerif;
origin = (0,0);
type = Corner;
},
{
name = _corner.rightBottomSerif;
options = 1;
origin = (0,1);
type = Corner;
},
{
name = _corner.rightBottomSerif;
origin = (0,4);
scale = (1,-1);
type = Corner;
},
{
name = _corner.leftBottomSerif;
options = 1;
origin = (0,5);
scale = (1,-1);
type = Corner;
},
{
name = _corner.leftBottomSerif;
origin = (1,1);
type = Corner;
},
{
name = _corner.rightBottomSerif;
options = 1;
origin = (1,2);
type = Corner;
}
);
layerId = m01;
shapes = (
{
closed = 1;
nodes = (
(602,752,l),
(556,752,l),
(357,356,l),
(368,356,l),
(149,752,l),
(55,752,l),
(306,311,l),
(381,310,l)
);
},
{
closed = 1;
nodes = (
(306,342,l),
(306,0,l),
(381,0,l),
(381,342,l)
);
}
);
width = 660;
}
);
unicode = 89;
},
{
glyphname = Z;
lastChange = "2025-03-09 03:27:00 +0000";
layers = (
{
backgroundImage = {
imagePath = "specimen-images/10pt-capZ.jpg";
pos = (-8,-330);
scale = (12.84,12.84);
};
layerId = m01;
shapes = (
{
closed = 1;
nodes = (
(516,0,ls),
(522,0,o),
(526,3,o),
(527,8,cs),
(537,53,o),
(552,99,o),
(571,140,cs),
(577,153,o),
(559,165,o),
(550,153,cs),
(502,92,o),
(452,35,o),
(432,35,cs),
(127,35,l),
(573,752,l),
(125,754,ls),
(119,754,o),
(115,751,o),
(114,746,cs),
(107,709,o),
(98,673,o),
(83,640,cs),
(77,627,o),
(95,615,o),
(104,627,cs),
(152,688,o),
(189,718,o),
(219,718,cs),
(460,718,l),
(13,0,l)
);
}
);
width = 586;
}
);
unicode = 90;
},
{
glyphname = K.ss01;
lastChange = "2025-03-07 03:42:39 +0000";
layers = (
{
hints = (
{
name = _corner.rightBottomSerif;
origin = (0,1);
scale = (1,-1);
type = Corner;
},
{
name = _corner.leftBottomSerif;
options = 1;
origin = (0,2);
scale = (-1,1);
type = Corner;
},
{
name = _corner.leftBottomSerif;
origin = (1,0);
type = Corner;
},
{
name = _corner.rightBottomSerif;
origin = (1,1);
type = Corner;
},
{
name = _corner.rightBottomSerif;
options = 1;
origin = (1,2);
scale = (1,-1);
type = Corner;
},
{
name = _corner.leftBottomSerif;
options = 1;
origin = (1,3);
scale = (-1,1);
type = Corner;
},
{
name = _corner.leftBottomSerif;
origin = (2,1);
type = Corner;
},
{
name = _corner.rightBottomSerif;
options = 1;
origin = (2,2);
type = Corner;
}
);
layerId = m01;
shapes = (
{
closed = 1;
nodes = (
(168,281,l),
(689,752,l),
(639,752,l),
(151,299,l)
);
},
{
closed = 1;
nodes = (
(122,0,l),
(202,0,l),
(202,752,l),
(122,752,l)
);
},
{
closed = 1;
nodes = (
(305,423,l),
(593,0,l),
(687,0,l),
(349,459,l)
);
}
);
width = 730;
}
);
},
{
glyphname = R.ss01;
lastChange = "2025-03-07 03:40:43 +0000";
layers = (
{
hints = (
{
name = _corner.leftBottomSerif;
options = 1;
origin = (0,17);
scale = (-1,1);
type = Corner;
},
{
name = _corner.leftBottomSerif;
origin = (0,18);
type = Corner;
},
{
name = _corner.rightBottomSerif;
origin = (0,19);
type = Corner;
},
{
name = _corner.rightBottomSerif;
options = 1;
origin = (1,2);
type = Corner;
}
);
layerId = m01;
shapes = (
{
closed = 1;
nodes = (
(173,729,l),
(327,731,ls),
(438,732,o),
(514,663,o),
(514,537,cs),
(514,411,o),
(428,363,o),
(347,365,cs),
(164,368,l),
(164,331,l),
(347,331,ls),
(468,331,o),
(586,400,o),
(586,537,cs),
(586,684,o),
(468,763,o),
(327,762,cs),
(93,760,l),
(93,0,l),
(173,-1,l)
);
},
{
closed = 1;
nodes = (
(336,356,l),
(533,0,l),
(627,0,l),
(402,356,l)
);
}
);
width = 600;
}
);
},
{
glyphname = a;
lastChange = "2025-03-09 03:00:44 +0000";
layers = (
{
backgroundImage = {
imagePath = "specimen-images/12pt-lowerA.jpg";
locked = 1;
pos = (-94,-338);
scale = (10.7,10.7);
};
hints = (
{
name = _corner.rightBottomSerif;
origin = (0,0);
type = Corner;
}
);
layerId = m01;
shapes = (
{
closed = 1;
nodes = (
(393,0,l),
(393,394,ls),
(393,475,o),
(299,505,o),
(236,505,cs),
(160,505,o),
(64,449,o),
(64,369,cs),
(64,344,o),
(80,329,o),
(104,329,cs),
(127,329,o),
(142,344,o),
(142,369,cs),
(142,381,o),
(134,389,o),
(134,401,cs),
(134,437,o),
(176,470,o),
(229,470,cs),
(283,470,o),
(318,445,o),
(318,383,cs),
(318,10,ls),
(318,4,o),
(322,0,o),
(328,0,cs)
);
},
{
closed = 1;
nodes = (
(332,109,l),
(268,59,o),
(217,35,o),
(182,32,cs),
(146,29,o),
(120,59,o),
(120,113,cs),
(120,169,o),
(146,199,o),
(188,225,cs),
(221,245,o),
(259,255,o),
(338,279,c),
(332,316,l),
(276,298,o),
(223,280,o),
(180,265,cs),
(95,236,o),
(38,183,o),
(38,96,cs),
(38,37,o),
(94,-16,o),
(150,-17,cs),
(227,-19,o),
(298,41,o),
(347,87,c)
);
},
{
closed = 0;
nodes = (
(223,244,l),
(226,237,o),
(222,252,o),
(224,245,cs)
);
}
);
width = 498;
}
);
unicode = 97;
},
{
glyphname = b;
lastChange = "2025-03-10 01:33:15 +0000";
layers = (
{
backgroundImage = {
imagePath = "specimen-images/12pt-lowerB.jpg";
locked = 1;
pos = (2,-337);
scale = (10.7,10.79);
};
hints = (
{
name = _cap.flag;
origin = (2,8);
type = Cap;
}
);
layerId = m01;
shapes = (
{
closed = 1;
nodes = (
(105,376,l),
(105,149,l)
);
},
{
closed = 0;
nodes = (
(107,11,l)
);
},
{
closed = 1;
nodes = (
(83,752,l),
(83,12,l),
(83,-6,o),
(103,-1,o),
(110,10,cs),
(124,32,o),
(147,43,o),
(162,54,c),
(162,752,l)
);
},
{
closed = 1;
nodes = (
(175,12,o),
(228,-10,o),
(283,-10,cs),
(412,-10,o),
(509,101,o),
(509,249,c),
(509,397,o),
(412,504,o),
(283,504,cs),
(177,504,o),
(134,423,o),
(134,340,c),
(162,321,l),
(170,413,o),
(213,460,o),
(284,460,cs),
(368,460,o),
(425,401,o),
(425,249,cs),
(425,96,o),
(372,42,o),
(284,42,cs),
(228,42,o),
(179,70,o),
(147,135,c),
(130,75,l)
);
}
);
width = 549;
}
);
unicode = 98;
},
{
glyphname = c;
lastChange = "2025-03-09 03:03:34 +0000";
layers = (
{
backgroundImage = {
imagePath = "specimen-images/12pt-lowerC.jpg";
locked = 1;
pos = (-1,-345);
scale = (10.7,10.7);
};
layerId = m01;
shapes = (
{
closed = 1;
nodes = (
(418,415,o),
(384,505,o),
(263,505,cs),
(134,505,o),
(40,386,o),
(40,252,cs),
(40,104,o),
(138,-13,o),
(267,-13,cs),
(339,-13,o),
(385,17,o),
(416,57,cs),
(438,86,o),
(404,109,o),
(382,83,cs),
(351,46,o),
(325,35,o),
(268,35,cs),
(223,35,o),
(126,61,o),
(126,252,cs),
(126,420,o),
(174,466,o),
(262,466,cs),
(307,466,o),
(338,437,o),
(338,397,cs),
(338,375,o),
(356,357,o),
(378,357,cs),
(400,357,o),
(418,375,o),
(418,397,cs)
);
}
);
width = 458;
}
);
unicode = 99;
},
{
glyphname = d;
lastChange = "2025-03-09 15:46:21 +0000";
layers = (
{
backgroundImage = {
imagePath = "specimen-images/12pt-lowerD.jpg";
locked = 1;
pos = (8,-343);
scale = (10.7,10.7);
};
hints = (
{
name = _corner.rightBottomSerif;
origin = (0,5);
type = Corner;
},
{
name = _cap.flag;
origin = (0,6);
type = Cap;
}
);
layerId = m01;
shapes = (
{
closed = 1;
nodes = (
(393,752,l),
(393,10,ls),
(393,4,o),
(397,0,o),
(403,0,cs),
(468,0,l),
(468,752,l)
);
},
{
closed = 1;
nodes = (
(426,179,l),
(406,125,o),
(348,39,o),
(262,39,cs),
(174,39,o),
(127,95,o),
(127,248,cs),
(127,400,o),
(184,454,o),
(268,454,cs),
(333,454,o),
(381,412,o),
(393,328,c),
(429,335,l),
(423,397,o),
(369,503,o),
(252,503,cs),
(140,503,o),
(43,396,o),
(43,248,c),
(43,100,o),
(134,-11,o),
(253,-11,cs),
(358,-11,o),
(414,92,o),
(446,144,c)
);
}
);
width = 582;
}
);
unicode = 100;
},
{
glyphname = e;
lastChange = "2025-03-09 03:04:46 +0000";
layers = (
{
backgroundImage = {
imagePath = "specimen-images/12pt-lowerE.jpg";
locked = 1;
pos = (-4,-333);
scale = (10.7,10.7);
};
hints = (
{
place = (332,30);
type = Stem;
}
);
layerId = m01;
shapes = (
{
closed = 1;
nodes = (
(40,98,o),
(137,-13,o),
(266,-13,cs),
(338,-13,o),
(384,17,o),
(415,57,cs),
(437,86,o),
(403,109,o),
(381,83,cs),
(350,46,o),
(324,35,o),
(267,35,cs),
(222,35,o),
(123,55,o),
(123,246,cs),
(123,412,o),
(175,454,o),
(253,454,cs),
(342,454,o),
(365,405,o),
(368,264,c),
(442,264,l),
(442,387,o),
(379,497,o),
(254,497,cs),
(125,497,o),
(40,388,o),
(40,246,cs)
);
},
{
closed = 1;
nodes = (
(119,264,l),
(379,264,l),
(379,299,l),
(119,299,l)
);
}
);
width = 482;
}
);
unicode = 101;
},
{
glyphname = f;
lastChange = "2025-03-09 15:39:48 +0000";
layers = (
{
backgroundImage = {
imagePath = "specimen-images/12pt-lowerF.jpg";
locked = 1;
pos = (30,-340);
scale = (10.7,10.7);
};
hints = (
{
name = _corner.leftBottomSerif;
origin = (0,39);
type = Corner;
},
{
name = _corner.rightBottomSerif;
origin = (0,0);
type = Corner;
}
);
layerId = m01;
shapes = (
{
closed = 1;
nodes = (
(217,5,l),
(217,461,l),
(252,461,o),
(312,460,o),
(321,459,cs),
(344,457,o),
(345,498,o),
(321,496,cs),
(312,495,o),
(252,494,o),
(217,494,c),
(200,538,o),
(161,717,o),
(216,717,cs),
(248,717,o),
(236,690,o),
(253,671,cs),
(269,653,o),
(294,653,o),
(308,666,cs),
(324,678,o),
(330,703,o),
(314,724,cs),
(298,745,o),
(257,758,o),
(227,753,cs),
(184,746,o),
(145,712,o),
(144,642,cs),
(142,494,l),
(123,495,o),
(105,495,o),
(86,496,cs),
(62,497,o),
(63,458,o),
(86,459,cs),
(105,460,o),
(123,460,o),
(142,461,c),
(142,5,l)
);
}
);
width = 370;
}
);
unicode = 102;
},
{
glyphname = g;
lastChange = "2025-03-09 03:05:21 +0000";
layers = (
{
backgroundImage = {
imagePath = "specimen-images/12pt-lowerE.jpg";
locked = 1;
pos = (20,-328);
scale = (10.7,10.7);
};
layerId = m01;
shapes = (
{
closed = 1;
nodes = (
(386,136,o),
(478,219,o),
(478,321,cs),
(478,422,o),
(386,505,o),
(280,505,cs),
(174,505,o),
(82,422,o),
(82,321,cs),
(82,217,o),
(177,136,o),
(280,136,cs)
);
},
{
closed = 1;
nodes = (
(214,166,o),
(164,201,o),
(163,321,c),
(163,321,ls),
(163,438,o),
(214,474,o),
(281,474,cs),
(349,474,o),
(398,439,o),
(398,321,cs),
(398,200,o),
(349,166,o),
(281,166,cs)
);
},
{
closed = 1;
nodes = (
(275,-42,ls),
(326,-53,o),
(466,-68,o),
(466,-125,cs),
(466,-180,o),
(394,-221,o),
(281,-221,cs),
(198,-221,o),
(99,-184,o),
(99,-115,cs),
(99,-68,o),
(172,-27,o),
(221,0,c),
(195,12,l),
(133,-18,o),
(40,-54,o),
(40,-119,cs),
(40,-208,o),
(180,-253,o),
(277,-253,cs),
(374,-253,o),
(521,-219,o),
(521,-122,cs),
(521,19,o),
(313,31,o),
(182,56,cs),
(73,77,o),
(155,126,o),
(208,166,c),
(183,183,l),
(149,155,o),
(70,108,o),
(72,64,cs),
(73,34,o),
(105,-7,o),
(208,-28,cs)
);
},
{
closed = 1;
nodes = (
(543,435,o),
(560,451,o),
(560,470,cs),
(560,489,o),
(543,503,o),
(525,505,cs),
(477,511,o),
(438,483,o),
(410,445,c),
(430,425,l),
(438,433,o),
(443,449,o),
(465,449,cs),
(494,449,o),
(500,435,o),
(525,435,cs)
);
}
);
width = 580;
}
);
unicode = 103;
},
{
glyphname = h;
lastChange = "2025-03-09 03:05:41 +0000";
layers = (
{
hints = (
{
name = _corner.leftBottomSerif;
origin = (0,1);
type = Corner;
},
{
name = _corner.rightBottomSerif;
origin = (0,2);
type = Corner;
},
{
name = _cap.flag;
origin = (0,3);
type = Cap;
},
{
name = _corner.leftBottomSerif;
origin = (2,0);
type = Corner;
},
{
name = _corner.rightBottomSerif;
origin = (2,1);
type = Corner;
}
);
layerId = m01;
shapes = (
{
closed = 1;
nodes = (
(122,752,l),
(122,0,l),
(197,0,l),
(197,752,l)
);
},
{
closed = 0;
nodes = (
(466,407,l),
(466,408,l)
);
},
{
closed = 1;
nodes = (
(426,0,l),
(501,0,l),
(501,408,l),
(501,480,o),
(487,508,o),
(406,508,cs),
(345,508,o),
(232,450,o),
(176,419,c),
(186,386,l),
(214,400,o),
(241,414,o),
(270,428,cs),
(295,440,o),
(361,465,o),
(384,465,cs),
(428,465,o),
(426,430,o),
(426,383,c)
);
}
);
width = 619;
}
);
unicode = 104;
},
{
glyphname = i;
lastChange = "2025-03-06 17:28:24 +0000";
layers = (
{
backgroundImage = {
imagePath = "specimen-images/12pt-lowerI.jpg";
pos = (18,-345);
scale = (10.7,10.7);
};
guides = (
{
pos = (18,-345);
},
{
angle = 270;
pos = (50,14);
}
);
hints = (
{
name = _corner.leftBottomSerif;
origin = (1,1);
type = Corner;
},
{
name = _corner.rightBottomSerif;
origin = (1,2);
type = Corner;
},
{
name = _cap.flag;
origin = (1,3);
type = Cap;
}
);
layerId = m01;
shapes = (
{
closed = 1;
nodes = (
(181,596,o),
(206,621,o),
(206,652,cs),
(206,683,o),
(181,707,o),
(151,707,cs),
(120,707,o),
(95,683,o),
(95,652,cs),
(95,621,o),
(120,596,o),
(151,596,cs)
);
},
{
closed = 1;
nodes = (
(122,511,l),
(122,0,l),
(197,0,l),
(197,511,l)
);
}
);
width = 320;
}
);
unicode = 105;
},
{
glyphname = j;
lastChange = "2025-03-09 03:06:38 +0000";
layers = (
{
backgroundImage = {
imagePath = "specimen-images/12pt-lowerJ.jpg";
locked = 1;
pos = (-10,-355);
scale = (10.7,10.7);
};
hints = (
{
name = _cap.flag;
origin = (1,3);
type = Cap;
}
);
layerId = m01;
shapes = (
{
closed = 1;
nodes = (
(121,-140,l),
(121,-182,o),
(128,-237,o),
(96,-237,cs),
(70,-237,o),
(78,-212,o),
(71,-200,cs),
(66,-189,o),
(55,-181,o),
(43,-181,cs),
(25,-181,o),
(10,-197,o),
(10,-218,cs),
(10,-257,o),
(64,-264,o),
(95,-264,cs),
(135,-264,o),
(196,-236,o),
(196,-140,c)
);
},
{
closed = 1;
nodes = (
(121,505,l),
(121,-140,l),
(196,-140,l),
(196,505,l)
);
},
{
closed = 1;
nodes = (
(179,596,o),
(204,621,o),
(204,652,cs),
(204,683,o),
(179,707,o),
(149,707,cs),
(118,707,o),
(93,683,o),
(93,652,cs),
(93,621,o),
(118,596,o),
(149,596,cs)
);
}
);
width = 290;
}
);
unicode = 106;
},
{
glyphname = k;
lastChange = "2025-03-09 03:06:53 +0000";
layers = (
{
backgroundImage = {
imagePath = "specimen-images/12pt-lowerK.jpg";
locked = 1;
pos = (10,-331);
scale = (10.7,10.7);
};
hints = (
{
name = _corner.leftBottomSerif;
origin = (0,1);
type = Corner;
},
{
name = _corner.rightBottomSerif;
origin = (0,2);
type = Corner;
},
{
name = _cap.flag;
origin = (0,3);
type = Cap;
},
{
name = _corner.leftBottomSerif;
origin = (1,1);
type = Corner;
},
{
name = _corner.rightBottomSerif;
options = 1;
origin = (1,2);
type = Corner;
}
);
layerId = m01;
shapes = (
{
closed = 1;
nodes = (
(122,752,l),
(122,0,l),
(197,0,l),
(197,752,l)
);
},
{
closed = 1;
nodes = (
(279,282,l),
(435,0,l),
(517,0,l),
(334,331,l)
);
},
{
closed = 1;
nodes = (
(156,210,l),
(184,188,l),
(461,440,l),
(473,450,o),
(498,477,o),
(537,477,c),
(550,477,o),
(550,493,o),
(537,493,cs),
(525,493,o),
(487,488,o),
(455,488,cs),
(420,488,o),
(392,493,o),
(375,493,cs),
(362,493,o),
(362,477,o),
(375,477,c),
(414,477,o),
(398,428,o),
(381,413,cs)
);
}
);
width = 610;
}
);
unicode = 107;
},
{
glyphname = l;
lastChange = "2025-03-09 03:07:05 +0000";
layers = (
{
hints = (
{
name = _corner.leftBottomSerif;
origin = (0,1);
type = Corner;
},
{
name = _corner.rightBottomSerif;
origin = (0,2);
type = Corner;
},
{
name = _cap.flag;
origin = (0,3);
type = Cap;
},
{
name = _cap.flag;
origin = (0,3);
target = (0,1);
type = Cap;
}
);
layerId = m01;
shapes = (
{
closed = 1;
nodes = (
(122,752,l),
(122,0,l),
(197,0,l),
(197,752,l)
);
}
);
width = 320;
}
);
unicode = 108;
},
{
glyphname = m;
lastChange = "2025-03-09 03:07:16 +0000";
layers = (
{
backgroundImage = {
imagePath = "specimen-images/12pt-lowerM.jpg";
pos = (14,-331);
scale = (10.7,10.7);
};
hints = (
{
name = _corner.leftBottomSerif;
origin = (0,1);
type = Corner;
},
{
name = _corner.rightBottomSerif;
origin = (0,2);
type = Corner;
},
{
name = _cap.flag;
origin = (0,3);
type = Cap;
},
{
name = _corner.leftBottomSerif;
origin = (2,0);
type = Corner;
},
{
name = _corner.rightBottomSerif;
origin = (2,1);
type = Corner;
},
{
name = _corner.leftBottomSerif;
origin = (3,0);
type = Corner;
},
{
name = _corner.rightBottomSerif;
origin = (3,1);
type = Corner;
}
);
layerId = m01;
shapes = (
{
closed = 1;
nodes = (
(126,504,l),
(126,0,l),
(197,0,l),
(197,504,l)
);
},
{
closed = 0;
nodes = (
(470,407,l),
(470,408,l)
);
},
{
closed = 1;
nodes = (
(401,0,l),
(476,0,l),
(476,408,l),
(476,480,o),
(462,508,o),
(381,508,cs),
(320,508,o),
(207,450,o),
(151,419,c),
(161,386,l),
(189,400,o),
(216,414,o),
(245,428,cs),
(270,440,o),
(336,465,o),
(359,465,cs),
(403,465,o),
(401,430,o),
(401,383,c)
);
},
{
closed = 1;
nodes = (
(683,0,l),
(758,0,l),
(758,408,l),
(758,480,o),
(744,508,o),
(663,508,cs),
(602,508,o),
(489,450,o),
(433,419,c),
(443,386,l),
(471,400,o),
(498,414,o),
(527,428,cs),
(552,440,o),
(618,465,o),
(641,465,cs),
(685,465,o),
(683,430,o),
(683,383,c)
);
}
);
width = 876;
}
);
unicode = 109;
},
{
glyphname = n;
lastChange = "2025-03-09 15:49:00 +0000";
layers = (
{
anchors = (
{
name = bottom;
pos = (332,0);
}
);
backgroundImage = {
imagePath = "specimen-images/12pt-lowerN.jpg";
locked = 1;
pos = (32,-326);
scale = (10.7,10.7);
};
hints = (
{
name = _corner.leftBottomSerif;
origin = (1,1);
type = Corner;
},
{
name = _corner.rightBottomSerif;
origin = (1,2);
type = Corner;
},
{
name = _corner.leftBottomSerif;
origin = (0,0);
type = Corner;
},
{
name = _corner.rightBottomSerif;
origin = (0,1);
type = Corner;
},
{
name = _cap.flag;
origin = (1,3);
type = Cap;
}
);
layerId = m01;
shapes = (
{
closed = 1;
nodes = (
(426,0,l),
(501,0,l),
(501,408,ls),
(501,480,o),
(461,508,o),
(380,508,cs),
(319,508,o),
(232,461,o),
(176,419,c),
(186,383,l),
(230,415,o),
(316,465,o),
(362,465,cs),
(406,465,o),
(426,430,o),
(426,383,cs)
);
},
{
closed = 1;
nodes = (
(122,504,l),
(122,0,l),
(197,0,l),
(197,504,l)
);
},
{
closed = 0;
nodes = (
(466,407,l),
(466,408,l)
);
}
);
width = 619;
},
{
anchors = (
{
name = bottom;
pos = (317,0);
}
);
associatedMasterId = m01;
backgroundImage = {
imagePath = "specimen-images/12pt-lowerN.jpg";
locked = 1;
pos = (17,-326);
scale = (10.7,10.7);
};
hints = (
{
name = _corner.leftBottomSerif;
origin = (1,1);
type = Corner;
},
{
name = _corner.rightBottomSerif;
origin = (1,2);
type = Corner;
},
{
name = _corner.leftBottomSerif;
origin = (0,0);
type = Corner;
},
{
name = _corner.rightBottomSerif;
origin = (0,1);
type = Corner;
},
{
name = _cap.flag;
origin = (1,3);
type = Cap;
}
);
layerId = "F39141E2-E0CB-49EB-B3B8-3495E401360D";
name = "Mar 8, 25 at 21:14";
shapes = (
{
closed = 1;
nodes = (
(411,0,l),
(486,0,l),
(486,408,l),
(486,480,o),
(472,508,o),
(400,508,cs),
(330,508,o),
(217,450,o),
(161,419,c),
(171,386,l),
(199,400,o),
(226,414,o),
(255,428,cs),
(280,440,o),
(319,454,o),
(342,454,cs),
(364,454,o),
(382,447,o),
(395,432,c),
(404,421,o),
(411,411,o),
(411,383,c)
);
},
{
closed = 1;
nodes = (
(107,504,l),
(107,0,l),
(182,0,l),
(182,504,l)
);
},
{
closed = 0;
nodes = (
(451,407,l),
(451,408,l)
);
}
);
width = 591;
}
);
unicode = 110;
},
{
glyphname = o;
lastChange = "2025-03-09 02:55:00 +0000";
layers = (
{
backgroundImage = {
imagePath = "specimen-images/12pt-lowerO.jpg";
locked = 1;
pos = (-7,-326);
scale = (10.7,10.7);
};
layerId = m01;
shapes = (
{
closed = 1;
nodes = (
(421,74,o),
(359,31,o),
(274,31,cs),
(189,31,o),
(127,74,o),
(127,246,cs),
(127,418,o),
(189,461,o),
(274,461,cs),
(359,461,o),
(421,418,o),
(421,246,cs)
);
},
{
closed = 1;
nodes = (
(40,99,o),
(146,-14,o),
(274,-14,cs),
(402,-14,o),
(508,99,o),
(508,246,cs),
(508,393,o),
(402,506,o),
(274,506,cs),
(146,506,o),
(40,393,o),
(40,246,cs)
);
}
);
width = 548;
}
);
metricRight = "=|";
unicode = 111;
},
{
glyphname = p;
lastChange = "2025-03-10 01:36:26 +0000";
layers = (
{
backgroundImage = {
imagePath = "specimen-images/12pt-lowerP.jpg";
locked = 1;
pos = (20,-335);
scale = (10.7,10.7);
};
guides = (
{
angle = 244.7223;
pos = (143,376);
}
);
hints = (
{
name = _corner.leftBottomSerif;
origin = (0,1);
type = Corner;
},
{
name = _corner.rightBottomSerif;
origin = (0,2);
type = Corner;
},
{
name = _cap.flag;
origin = (0,3);
type = Cap;
}
);
layerId = m01;
shapes = (
{
closed = 1;
nodes = (
(112,504,l),
(112,-254,l),
(187,-254,l),
(187,504,l)
);
},
{
closed = 1;
nodes = (
(200,12,o),
(253,-10,o),
(308,-10,cs),
(437,-10,o),
(534,101,o),
(534,249,c),
(534,397,o),
(447,504,o),
(318,504,cs),
(212,504,o),
(159,423,o),
(159,340,c),
(187,321,l),
(195,413,o),
(248,460,o),
(319,460,cs),
(403,460,o),
(450,401,o),
(450,249,cs),
(450,96,o),
(397,42,o),
(309,42,cs),
(253,42,o),
(204,70,o),
(172,135,c),
(155,75,l)
);
}
);
width = 573;
}
);
unicode = 112;
},
{
glyphname = q;
lastChange = "2025-03-10 01:37:49 +0000";
layers = (
{
backgroundImage = {
imagePath = "specimen-images/12pt-lowerQ.jpg";
locked = 1;
pos = (5,-333);
scale = (10.7,10.7);
};
hints = (
{
name = _corner.leftBottomSerif;
options = 1;
origin = (0,1);
scale = (1,-1);
type = Corner;
},
{
name = _corner.leftBottomSerif;
origin = (0,0);
type = Corner;
}
);
layerId = m01;
shapes = (
{
closed = 1;
nodes = (
(389,-254,l),
(464,-254,l),
(464,404,l),
(464,438,o),
(468,467,o),
(468,485,c),
(468,501,o),
(463,504,o),
(451,504,c),
(436,504,o),
(420,491,o),
(403,478,c),
(380,460,o),
(353,457,o),
(342,457,c),
(389,399,l)
);
},
{
closed = 1;
nodes = (
(423,183,l),
(403,129,o),
(345,43,o),
(259,43,cs),
(171,43,o),
(124,99,o),
(124,252,cs),
(124,404,o),
(181,458,o),
(265,458,cs),
(330,458,o),
(378,416,o),
(390,332,c),
(426,339,l),
(420,401,o),
(366,507,o),
(249,507,cs),
(137,507,o),
(40,400,o),
(40,252,c),
(40,104,o),
(131,-7,o),
(250,-7,cs),
(355,-7,o),
(411,96,o),
(443,148,c)
);
}
);
width = 541;
}
);
unicode = 113;
},
{
glyphname = r;
lastChange = "2025-03-09 03:08:40 +0000";
layers = (
{
backgroundImage = {
imagePath = "specimen-images/12pt-lowerR.jpg";
locked = 1;
pos = (30,-334);
scale = (10.7,10.7);
};
hints = (
{
name = _corner.leftBottomSerif;
origin = (0,1);
type = Corner;
},
{
name = _corner.rightBottomSerif;
origin = (0,2);
type = Corner;
},
{
name = _cap.flag;
origin = (0,3);
type = Cap;
}
);
layerId = m01;
shapes = (
{
closed = 1;
nodes = (
(122,504,l),
(122,0,l),
(197,0,l),
(197,504,l)
);
},
{
closed = 1;
nodes = (
(359,420,o),
(378,439,o),
(378,463,cs),
(378,486,o),
(359,505,o),
(336,505,cs),
(305,505,o),
(277,492,o),
(257,478,cs),
(231,460,o),
(214,438,o),
(191,408,c),
(191,386,l),
(214,409,o),
(231,427,o),
(259,434,cs),
(279,439,o),
(310,421,o),
(336,420,cs)
);
}
);
width = 403;
}
);
unicode = 114;
},
{
glyphname = s;
lastChange = "2025-03-09 03:12:29 +0000";
layers = (
{
backgroundImage = {
imagePath = "specimen-images/12pt-lowerS.jpg";
locked = 1;
pos = (18,-336);
scale = (10.7,10.7);
};
layerId = m01;
shapes = (
{
closed = 1;
nodes = (
(162,233,o),
(110,264,cs),
(68,289,o),
(45,333,o),
(45,376,cs),
(45,472,o),
(135,506,o),
(205,506,cs),
(271,506,o),
(325,480,o),
(347,469,c),
(347,368,ls),
(347,361,o),
(341,357,o),
(336,357,cs),
(330,357,o),
(324,361,o),
(323,368,cs),
(310,423,o),
(262,471,o),
(193,471,cs),
(142,471,o),
(99,442,o),
(99,402,cs),
(99,366,o),
(114,349,o),
(153,329,cs),
(212,298,o),
(249,278,o),
(284,257,cs),
(335,226,o),
(381,198,o),
(381,137,cs),
(381,32,o),
(280,-15,o),
(196,-15,cs),
(123,-15,o),
(71,14,o),
(46,27,c),
(46,138,ls),
(46,147,o),
(54,151,o),
(61,151,cs),
(65,151,o),
(69,149,o),
(71,146,cs),
(103,76,o),
(131,23,o),
(208,23,cs),
(257,23,o),
(325,45,o),
(325,104,cs),
(325,142,o),
(286,163,o),
(248,185,cs),
(215,202,o)
);
}
);
width = 417;
},
{
associatedMasterId = m01;
backgroundImage = {
imagePath = "specimen-images/12pt-lowerS.jpg";
locked = 1;
pos = (12,-336);
scale = (10.7,10.7);
};
layerId = "CE4735F0-D95C-42DD-B14C-6ADB4FC847E9";
name = "Feb 26, 25 at 09:46";
shapes = (
{
closed = 1;
nodes = (
(40,142,ls),
(40,156,o),
(51,169,o),
(55,160,cs),
(66,136,o),
(77,97,o),
(109,68,cs),
(132,47,o),
(154,34,o),
(200,34,cs),
(249,34,o),
(322,51,o),
(322,110,cs),
(322,169,o),
(255,188,o),
(192,220,cs),
(103,265,o),
(49,288,o),
(49,376,cs),
(49,464,o),
(130,504,o),
(194,504,cs),
(250,504,o),
(308,470,o),
(338,449,c),
(338,366,ls),
(338,352,o),
(326,356,o),
(323,366,cs),
(317,385,o),
(307,408,o),
(280,431,cs),
(262,446,o),
(240,459,o),
(194,459,cs),
(130,459,o),
(103,433,o),
(103,395,cs),
(103,344,o),
(157,332,o),
(217,297,cs),
(287,256,o),
(375,219,o),
(375,133,cs),
(375,28,o),
(278,-11,o),
(200,-11,cs),
(127,-11,o),
(65,18,o),
(40,31,c)
);
}
);
width = 399;
},
{
associatedMasterId = m01;
backgroundImage = {
imagePath = "specimen-images/12pt-lowerS.jpg";
locked = 1;
pos = (12,-336);
scale = (10.7,10.7);
};
layerId = "C02F5396-6023-4723-860F-4A7102BF87D8";
name = "Feb 26, 25 at 10:30";
shapes = (
{
closed = 1;
nodes = (
(40,142,ls),
(40,156,o),
(51,169,o),
(55,160,cs),
(66,136,o),
(77,97,o),
(109,68,cs),
(132,47,o),
(154,34,o),
(200,34,cs),
(249,34,o),
(322,51,o),
(322,110,cs),
(322,169,o),
(255,188,o),
(192,220,cs),
(103,265,o),
(49,288,o),
(49,376,cs),
(49,464,o),
(130,504,o),
(194,504,cs),
(250,504,o),
(308,470,o),
(338,449,c),
(338,366,ls),
(338,352,o),
(326,356,o),
(323,366,cs),
(317,385,o),
(307,408,o),
(280,431,cs),
(262,446,o),
(240,459,o),
(194,459,cs),
(130,459,o),
(103,433,o),
(103,395,cs),
(103,344,o),
(157,332,o),
(217,297,cs),
(287,256,o),
(375,219,o),
(375,133,cs),
(375,28,o),
(278,-11,o),
(200,-11,cs),
(127,-11,o),
(65,18,o),
(40,31,c)
);
},
{
closed = 1;
nodes = (
(40,142,ls),
(40,156,o),
(51,169,o),
(55,160,cs),
(66,136,o),
(77,97,o),
(109,68,cs),
(132,47,o),
(154,34,o),
(200,34,cs),
(249,34,o),
(322,51,o),
(322,110,cs),
(322,169,o),
(255,188,o),
(192,220,cs),
(103,265,o),
(49,288,o),
(49,376,cs),
(49,464,o),
(130,504,o),
(194,504,cs),
(250,504,o),
(308,470,o),
(338,449,c),
(338,366,ls),
(338,352,o),
(326,356,o),
(323,366,cs),
(317,385,o),
(307,408,o),
(280,431,cs),
(262,446,o),
(240,459,o),
(194,459,cs),
(130,459,o),
(103,433,o),
(103,395,cs),
(103,344,o),
(157,332,o),
(217,297,cs),
(287,256,o),
(375,219,o),
(375,133,cs),
(375,28,o),
(278,-11,o),
(200,-11,cs),
(127,-11,o),
(65,18,o),
(40,31,c)
);
}
);
width = 399;
}
);
unicode = 115;
},
{
glyphname = t;
lastChange = "2025-03-10 01:35:24 +0000";
layers = (
{
backgroundImage = {
imagePath = "specimen-images/12pt-lowerT.jpg";
locked = 1;
pos = (2,-334);
scale = (10.7,10.7);
};
layerId = m01;
shapes = (
{
closed = 1;
nodes = (
(181,104,l),
(181,460,l),
(216,460,o),
(276,459,o),
(285,458,cs),
(308,456,o),
(309,497,o),
(285,495,cs),
(276,494,o),
(216,493,o),
(181,493,c),
(181,682,ls),
(181,715,o),
(137,715,o),
(137,682,cs),
(137,602,o),
(151,494,o),
(23,494,cs),
(-1,494,o),
(0,461,o),
(23,461,cs),
(106,461,l),
(106,104,l)
);
},
{
closed = 0;
nodes = (
(95,36,l)
);
},
{
closed = 1;
nodes = (
(282,-16,o),
(301,41,o),
(305,49,cs),
(314,68,o),
(301,78,o),
(291,66,cs),
(283,57,o),
(266,31,o),
(223,31,cs),
(180,31,o),
(181,70,o),
(181,104,c),
(106,104,l),
(106,21,o),
(140,-16,o),
(215,-16,cs)
);
}
);
width = 358;
}
);
unicode = 116;
},
{
glyphname = u;
lastChange = "2025-03-09 03:10:17 +0000";
layers = (
{
backgroundImage = {
imagePath = "specimen-images/12pt-lowerU.jpg";
pos = (41,-331);
scale = (10.7,10.7);
};
hints = (
{
name = _corner.rightBottomSerif;
origin = (0,0);
type = Corner;
},
{
name = _cap.flag;
origin = (0,1);
type = Cap;
},
{
name = _cap.flag;
origin = (2,0);
type = Cap;
}
);
layerId = m01;
shapes = (
{
closed = 1;
nodes = (
(481,0,l),
(481,506,l),
(406,506,l),
(406,0,l)
);
},
{
closed = 0;
nodes = (
(133,81,l),
(133,80,l)
);
},
{
closed = 1;
nodes = (
(187,505,l),
(112,505,l),
(112,97,l),
(112,25,o),
(126,-3,o),
(207,-3,cs),
(268,-3,o),
(381,55,o),
(437,86,c),
(427,119,l),
(399,105,o),
(372,91,o),
(343,77,cs),
(318,65,o),
(252,40,o),
(229,40,cs),
(185,40,o),
(187,75,o),
(187,122,c)
);
}
);
width = 604;
}
);
unicode = 117;
},
{
glyphname = v;
lastChange = "2025-03-09 03:10:45 +0000";
layers = (
{
backgroundImage = {
imagePath = "specimen-images/12pt-lowerV.jpg";
locked = 1;
pos = (7,-331);
scale = (10.7,10.7);
};
hints = (
{
name = _corner.rightBottomSerif;
options = 1;
origin = (0,8);
type = Corner;
},
{
name = _corner.leftBottomSerif;
origin = (0,7);
type = Corner;
},
{
name = _corner.rightBottomSerif;
options = 1;
origin = (0,5);
type = Corner;
},
{
name = _corner.leftBottomSerif;
origin = (0,4);
type = Corner;
}
);
layerId = m01;
shapes = (
{
closed = 1;
nodes = (
(246,0,ls),
(254,-22,o),
(301,-22,o),
(309,0,cs),
(496,494,l),
(447,494,l),
(294,76,l),
(141,494,l),
(61,494,l)
);
}
);
width = 555;
}
);
unicode = 118;
},
{
glyphname = w;
lastChange = "2025-03-09 03:10:53 +0000";
layers = (
{
backgroundImage = {
imagePath = "specimen-images/12pt-lowerW.jpg";
locked = 1;
pos = (18,-331);
scale = (10.7,10.7);
};
hints = (
{
name = _corner.leftBottomSerif;
origin = (1,2);
type = Corner;
},
{
name = _corner.rightBottomSerif;
options = 1;
origin = (1,3);
type = Corner;
},
{
name = _corner.leftBottomSerif;
origin = (1,2);
type = Corner;
},
{
name = _corner.rightBottomSerif;
options = 1;
origin = (1,3);
type = Corner;
},
{
name = _corner.leftBottomSerif;
origin = (0,4);
type = Corner;
},
{
name = _corner.rightBottomSerif;
options = 1;
origin = (0,5);
type = Corner;
},
{
name = _corner.leftBottomSerif;
origin = (0,7);
type = Corner;
},
{
name = _corner.rightBottomSerif;
options = 1;
origin = (0,8);
type = Corner;
}
);
layerId = m01;
shapes = (
{
closed = 1;
nodes = (
(512,9,ls),
(523,-23,o),
(568,-19,o),
(578,9,cs),
(750,494,l),
(703,494,l),
(562,76,l),
(421,494,l),
(340,494,l)
);
},
{
closed = 1;
nodes = (
(407,388,l),
(294,76,l),
(141,494,l),
(61,494,l),
(243,9,ls),
(255,-23,o),
(295,-22,o),
(306,9,cs),
(435,353,l)
);
}
);
width = 810;
}
);
unicode = 119;
},
{
glyphname = x;
lastChange = "2025-03-09 03:11:05 +0000";
layers = (
{
backgroundImage = {
imagePath = "specimen-images/12pt-lowerX.jpg";
locked = 1;
pos = (1,-331);
scale = (10.7,10.7);
};
hints = (
{
name = _corner.leftBottomSerif;
origin = (0,0);
type = Corner;
},
{
name = _corner.rightBottomSerif;
options = 1;
origin = (0,1);
type = Corner;
},
{
name = _corner.leftBottomSerif;
origin = (0,2);
type = Corner;
},
{
name = _corner.rightBottomSerif;
options = 1;
origin = (0,3);
type = Corner;
},
{
name = _corner.rightBottomSerif;
origin = (1,1);
scale = (-1,1);
type = Corner;
},
{
name = _corner.rightBottomSerif;
options = 1;
origin = (1,2);
type = Corner;
},
{
name = _corner.rightBottomSerif;
origin = (2,1);
scale = (-1,1);
type = Corner;
},
{
name = _corner.rightBottomSerif;
options = 1;
origin = (2,2);
type = Corner;
}
);
layerId = m01;
shapes = (
{
closed = 1;
nodes = (
(160,494,l),
(71,494,l),
(380,0,l),
(468,0,l)
);
},
{
closed = 1;
nodes = (
(284,243,l),
(464,494,l),
(402,494,l),
(244,262,l)
);
},
{
closed = 1;
nodes = (
(235,251,l),
(44,0,l),
(111,0,l),
(275,227,l)
);
}
);
width = 518;
}
);
unicode = 120;
},
{
glyphname = y;
lastChange = "2025-03-09 03:11:35 +0000";
layers = (
{
backgroundImage = {
imagePath = "specimen-images/12pt-lowerY.jpg";
locked = 1;
pos = (20,-342);
scale = (10.7,10.7);
};
hints = (
{
name = _corner.leftBottomSerif;
origin = (0,12);
type = Corner;
},
{
name = _corner.rightBottomSerif;
options = 1;
origin = (0,13);
type = Corner;
},
{
name = _corner.leftBottomSerif;
origin = (1,2);
type = Corner;
},
{
name = _corner.rightBottomSerif;
options = 1;
origin = (1,3);
type = Corner;
}
);
layerId = m01;
shapes = (
{
closed = 1;
nodes = (
(72,-164,o),
(52,-158,o),
(29,-176,cs),
(4,-196,o),
(5,-228,o),
(25,-245,cs),
(45,-262,o),
(58,-269,o),
(101,-269,cs),
(163,-269,o),
(217,-249,o),
(251,-169,cs),
(533,494,l),
(471,494,l),
(227,-124,l),
(189,-200,o),
(176,-217,o),
(144,-217,c),
(103,-217,o),
(105,-192,o),
(90,-179,cs)
);
},
{
closed = 1;
nodes = (
(305,50,l),
(312,86,l),
(159,494,l),
(80,494,l),
(282,-48,l)
);
}
);
width = 595;
}
);
unicode = 121;
},
{
glyphname = z;
lastChange = "2025-03-09 03:11:52 +0000";
layers = (
{
backgroundImage = {
imagePath = "specimen-images/12pt-lowerZ.jpg";
locked = 1;
pos = (41,-332);
scale = (10.7,10.7);
};
layerId = m01;
shapes = (
{
closed = 0;
nodes = (
(336,470,l),
(336,470,l)
);
},
{
closed = 1;
nodes = (
(194,459,ls),
(179,459,o),
(146,437,o),
(98,376,cs),
(90,365,o),
(64,376,o),
(71,389,cs),
(93,430,o),
(101,441,o),
(115,485,cs),
(117,490,o),
(118,494,o),
(123,494,cs),
(443,494,l),
(138,32,l),
(331,36,ls),
(346,36,o),
(379,57,o),
(427,118,cs),
(435,129,o),
(461,118,o),
(454,105,cs),
(432,64,o),
(424,53,o),
(410,9,cs),
(408,4,o),
(407,0,o),
(402,0,cs),
(40,0,l),
(40,24,l),
(336,470,l),
(340,459,l)
);
}
);
width = 485;
}
);
unicode = 122;
},
{
glyphname = zero;
lastChange = "2025-03-07 14:21:39 +0000";
layers = (
{
backgroundImage = {
imagePath = "specimen-images/12pt-num0.jpg";
locked = 1;
pos = (10,-216);
scale = (10.7,10.7);
};
layerId = m01;
shapes = (
{
closed = 1;
nodes = (
(104,-14,o),
(40,192,o),
(40,377,cs),
(40,562,o),
(104,768,o),
(286,768,cs),
(468,768,o),
(532,562,o),
(532,377,cs),
(532,192,o),
(468,-14,o),
(286,-14,cs)
);
},
{
closed = 1;
nodes = (
(125,214,o),
(144,26,o),
(286,26,cs),
(428,26,o),
(447,214,o),
(447,377,cs),
(447,540,o),
(428,728,o),
(286,728,cs),
(144,728,o),
(125,540,o),
(125,377,cs)
);
}
);
width = 572;
}
);
unicode = 48;
},
{
glyphname = one;
lastChange = "2025-03-07 14:21:27 +0000";
layers = (
{
backgroundImage = {
imagePath = "specimen-images/12pt-num1.jpg";
locked = 1;
pos = (-22,-333);
scale = (10.7,10.7);
};
guides = (
{
angle = 270;
pos = (40,692);
}
);
hints = (
{
name = _corner.leftBottomSerif;
type = Corner;
},
{
name = _corner.rightBottomSerif;
type = Corner;
},
{
name = _corner.rightBottomSerif;
options = 1;
scale = (1,-1);
type = Corner;
},
{
name = _corner.leftBottomSerif;
options = 1;
scale = (-1,1);
type = Corner;
}
);
layerId = m01;
shapes = (
{
closed = 1;
nodes = (
(159,84,l),
(157,38,o),
(94,32,o),
(55,32,c),
(45,32,o),
(40,24,o),
(40,16,cs),
(40,8,o),
(45,0,o),
(55,0,c),
(94,0,o),
(159,5,o),
(193,5,c),
(193,5,ls),
(228,5,o),
(300,0,o),
(339,0,c),
(350,0,o),
(355,8,o),
(355,16,cs),
(355,24,o),
(350,32,o),
(339,32,c),
(300,32,o),
(237,42,o),
(237,88,c),
(237,652,l),
(237,686,o),
(237,715,o),
(237,736,c),
(237,749,o),
(231,752,o),
(221,752,c),
(201,752,o),
(190,739,o),
(173,726,c),
(150,708,o),
(68,708,o),
(57,708,c),
(46,708,o),
(40,699,o),
(40,692,c),
(40,686,o),
(46,677,o),
(57,677,c),
(140,677,o),
(162,686,o),
(162,597,c)
);
}
);
width = 395;
}
);
unicode = 49;
},
{
glyphname = five;
lastChange = "2025-03-07 14:21:22 +0000";
layers = (
{
backgroundImage = {
imagePath = "specimen-images/12pt-num5.jpg";
locked = 1;
pos = (5,-330);
scale = (10.7,10.7);
};
layerId = m01;
shapes = (
{
closed = 1;
nodes = (
(235,-14,ls),
(383,-13,o),
(492,105,o),
(492,239,cs),
(492,387,o),
(398,504,o),
(269,504,cs),
(213,504,o),
(168,490,o),
(137,462,c),
(143,674,l),
(416,674,l),
(425,702,l),
(442,733,o),
(448,737,o),
(467,772,c),
(476,790,o),
(448,805,o),
(438,786,c),
(420,752,o),
(413,752,o),
(367,752,c),
(110,752,l),
(100,409,l),
(135,409,l),
(170,457,o),
(213,464,o),
(270,464,cs),
(315,464,o),
(412,431,o),
(412,240,cs),
(412,72,o),
(342,25,o),
(234,25,cs),
(126,25,o),
(28,86,o),
(112,197,cs),
(149,245,o),
(71,300,o),
(48,221,cs),
(14,102,o),
(86,-13,o),
(234,-14,cs)
);
}
);
width = 532;
}
);
unicode = 53;
},
{
glyphname = period;
lastChange = "2025-03-07 03:16:50 +0000";
layers = (
{
layerId = m01;
shapes = (
{
closed = 1;
nodes = (
(122,-12,o),
(149,15,o),
(149,48,cs),
(149,81,o),
(122,107,o),
(90,107,cs),
(57,107,o),
(30,81,o),
(30,48,cs),
(30,15,o),
(57,-12,o),
(90,-12,cs)
);
}
);
width = 179;
}
);
unicode = 46;
},
{
glyphname = comma;
lastChange = "2025-03-09 12:36:21 +0000";
layers = (
{
backgroundImage = {
imagePath = "specimen-images/comma.tif";
locked = 1;
pos = (-160,-447);
scale = (9.0082,9.0082);
};
layerId = m01;
shapes = (
{
closed = 1;
nodes = (
(69,-175,o),
(109,-168,o),
(141,-121,cs),
(162,-90,o),
(182,-29,o),
(172,48,cs),
(168,81,o),
(145,107,o),
(113,107,cs),
(80,107,o),
(53,81,o),
(53,56,cs),
(53,12,o),
(103,15,o),
(113,-14,cs),
(134,-75,o),
(95,-133,o),
(46,-148,cs),
(26,-154,o),
(34,-186,o),
(60,-178,cs)
);
}
);
width = 215;
}
);
unicode = 44;
},
{
glyphname = colon;
lastChange = "2025-03-07 03:20:21 +0000";
layers = (
{
layerId = m01;
shapes = (
{
closed = 1;
nodes = (
(122,298,o),
(149,325,o),
(149,358,cs),
(149,391,o),
(122,417,o),
(90,417,cs),
(57,417,o),
(30,391,o),
(30,358,cs),
(30,325,o),
(57,298,o),
(90,298,cs)
);
},
{
closed = 1;
nodes = (
(122,-12,o),
(149,15,o),
(149,48,cs),
(149,81,o),
(122,107,o),
(90,107,cs),
(57,107,o),
(30,81,o),
(30,48,cs),
(30,15,o),
(57,-12,o),
(90,-12,cs)
);
}
);
width = 179;
}
);
unicode = 58;
},
{
glyphname = semicolon;
lastChange = "2025-03-09 12:37:14 +0000";
layers = (
{
layerId = m01;
shapes = (
{
closed = 1;
nodes = (
(131,298,o),
(158,325,o),
(158,358,cs),
(158,391,o),
(131,417,o),
(99,417,cs),
(66,417,o),
(39,391,o),
(39,358,cs),
(39,325,o),
(66,298,o),
(99,298,cs)
);
},
{
closed = 1;
nodes = (
(64,-175,o),
(104,-168,o),
(136,-121,cs),
(157,-90,o),
(177,-29,o),
(167,48,cs),
(163,81,o),
(140,107,o),
(108,107,cs),
(75,107,o),
(48,81,o),
(48,56,cs),
(48,12,o),
(98,15,o),
(108,-14,cs),
(129,-75,o),
(90,-133,o),
(41,-148,cs),
(21,-154,o),
(29,-186,o),
(55,-178,cs)
);
}
);
width = 210;
}
);
unicode = 59;
},
{
glyphname = hyphen;
lastChange = "2025-03-09 12:37:41 +0000";
layers = (
{
layerId = m01;
shapes = (
{
closed = 1;
nodes = (
(30,242,ls),
(30,236,o),
(34,232,o),
(40,232,cs),
(300,232,ls),
(306,232,o),
(310,236,o),
(310,242,cs),
(310,279,ls),
(310,285,o),
(306,289,o),
(300,289,cs),
(40,289,ls),
(34,289,o),
(30,285,o),
(30,279,cs)
);
}
);
width = 340;
}
);
unicode = 45;
},
{
export = 0;
glyphname = _cap.flag;
lastChange = "2025-03-06 17:31:51 +0000";
layers = (
{
anchors = (
{
name = origin;
pos = (187,505);
}
);
layerId = m01;
shapes = (
{
closed = 0;
nodes = (
(187,405,ls),
(187,439,o),
(187,468,o),
(187,489,cs),
(187,502,o),
(181,505,o),
(171,505,cs),
(156,505,o),
(140,492,o),
(123,479,cs),
(100,461,o),
(68,458,o),
(57,458,cs),
(46,458,o),
(40,449,o),
(40,442,cs),
(40,436,o),
(46,427,o),
(57,427,cs),
(96,427,o),
(112,416,o),
(112,380,cs)
);
}
);
width = 241;
}
);
},
{
export = 0;
glyphname = _corner.leftBottomSerif;
lastChange = "2025-03-06 17:30:08 +0000";
layers = (
{
anchors = (
{
name = left;
pos = (122,48);
},
{
name = origin;
pos = (124,0);
},
{
name = right;
pos = (158,0);
}
);
layerId = m01;
shapes = (
{
closed = 0;
nodes = (
(122,84,l),
(122,38,o),
(104,32,o),
(65,32,cs),
(45,32,o),
(45,0,o),
(65,0,c),
(104,0,o),
(124,5,o),
(158,5,c)
);
}
);
width = 208;
}
);
},
{
export = 0;
glyphname = _corner.rightBottomSerif;
lastChange = "2025-03-06 17:30:30 +0000";
layers = (
{
anchors = (
{
name = left;
pos = (50,0);
},
{
name = origin;
pos = (86,0);
},
{
name = right;
pos = (86,45);
}
);
layerId = m01;
shapes = (
{
closed = 0;
nodes = (
(50,5,l),
(86,5,o),
(104,0,o),
(143,0,c),
(164,0,o),
(164,32,o),
(143,32,cs),
(104,32,o),
(86,38,o),
(86,84,c)
);
}
);
width = 209;
}
);
},
{
glyphname = adore.bold;
lastChange = "2025-03-10 02:05:54 +0000";
layers = (
{
hints = (
{
name = _corner.rightBottomSerif;
options = 1;
origin = (0,4);
type = Corner;
},
{
name = _corner.leftBottomSerif;
origin = (0,3);
type = Corner;
},
{
name = _corner.rightBottomSerif;
options = 1;
origin = (0,0);
type = Corner;
},
{
name = _corner.leftBottomSerif;
origin = (0,7);
type = Corner;
},
{
name = _corner.rightBottomSerif;
origin = (3,7);
type = Corner;
},
{
name = _corner.rightBottomSerif;
origin = (9,33);
type = Corner;
},
{
name = _corner.leftBottomSerif;
origin = (9,32);
type = Corner;
}
);
layerId = m01;
shapes = (
{
closed = 1;
nodes = (
(793,63,l),
(548,815,l),
(470,815,l),
(183,63,l),
(222,63,l),
(475,733,l),
(443,690,l),
(644,63,l)
);
},
{
closed = 1;
nodes = (
(623,334,l),
(623,369,l),
(310,369,l),
(310,334,l)
);
},
{
closed = 1;
nodes = (
(548,815,l),
(498,961,o),
(463,822,o),
(372,822,cs),
(370,822,ls),
(343,822,o),
(344,788,o),
(371,788,cs),
(417,788,o),
(449,756,o),
(433,717,c)
);
},
{
closed = 1;
nodes = (
(1049,53,o),
(1108,87,o),
(1136,138,c),
(1136,73,ls),
(1136,67,o),
(1140,63,o),
(1146,63,cs),
(1250,63,l),
(1250,799,ls),
(1250,851,o),
(1136,769,o),
(1083,768,cs),
(1081,768,ls),
(1053,768,o),
(1054,738,o),
(1082,738,cs),
(1121,738,o),
(1137,727,o),
(1137,691,cs),
(1137,460,l),
(1121,507,o),
(1093,547,o),
(1019,547,cs),
(924,547,o),
(825,470,o),
(825,312,cs),
(825,139,o),
(919,53,o),
(1003,53,cs)
);
},
{
closed = 1;
nodes = (
(1012,140,o),
(965,238,o),
(965,336,cs),
(965,435,o),
(1005,475,o),
(1054,475,cs),
(1094,475,o),
(1137,431,o),
(1137,363,c),
(1135,193,l),
(1135,169,o),
(1103,140,o),
(1071,140,cs)
);
},
{
closed = 1;
nodes = (
(1683,49,o),
(1791,162,o),
(1791,309,cs),
(1791,456,o),
(1683,569,o),
(1555,569,cs),
(1427,569,o),
(1319,456,o),
(1319,309,cs),
(1319,162,o),
(1427,49,o),
(1555,49,cs)
);
},
{
closed = 1;
nodes = (
(1503,84,o),
(1472,151,o),
(1472,309,cs),
(1472,467,o),
(1503,534,o),
(1555,534,cs),
(1607,534,o),
(1638,467,o),
(1638,309,cs),
(1638,151,o),
(1607,84,o),
(1555,84,cs)
);
},
{
closed = 1;
nodes = (
(2551,50,o),
(2594,120,o),
(2612,167,c),
(2594,175,l),
(2570,136,o),
(2516,101,o),
(2456,101,cs),
(2339,101,o),
(2333,261,o),
(2333,334,c),
(2626,334,l),
(2626,457,o),
(2557,567,o),
(2432,567,cs),
(2303,567,o),
(2207,448,o),
(2207,306,cs),
(2207,158,o),
(2311,50,o),
(2440,50,cs)
);
},
{
closed = 1;
nodes = (
(2334,422,o),
(2359,532,o),
(2435,532,c),
(2520,532,o),
(2531,423,o),
(2531,369,c),
(2334,369,l)
);
},
{
closed = 1;
nodes = (
(2017,432,l),
(2035,450,o),
(2054,468,o),
(2079,474,cs),
(2099,479,o),
(2130,461,o),
(2156,460,cs),
(2179,460,o),
(2215,472,o),
(2215,507,cs),
(2215,545,o),
(2179,555,o),
(2156,555,cs),
(2125,555,o),
(2097,542,o),
(2077,528,cs),
(2054,512,o),
(2037,492,o),
(2017,466,c),
(2017,550,ls),
(2017,602,o),
(1882,519,o),
(1829,519,cs),
(1818,519,o),
(1812,510,o),
(1812,503,cs),
(1812,497,o),
(1818,488,o),
(1829,488,cs),
(1868,488,o),
(1884,477,o),
(1884,441,c),
(1885,63,l),
(2017,63,l)
);
}
);
width = 2676;
}
);
},
{
glyphname = adore.hairline;
lastChange = "2025-03-09 14:57:40 +0000";
layers = (
{
layerId = m01;
shapes = (
{
closed = 1;
nodes = (
(1421,-14,o),
(1505,99,o),
(1505,246,cs),
(1505,393,o),
(1421,506,o),
(1293,506,cs),
(1165,506,o),
(1081,393,o),
(1081,246,cs),
(1081,99,o),
(1165,-14,o),
(1293,-14,cs)
);
},
{
closed = 1;
nodes = (
(930,-15,o),
(971,19,o),
(1007,58,c),
(1007,82,l),
(970,39,o),
(927,1,o),
(867,1,cs),
(765,1,o),
(666,83,o),
(666,249,cs),
(666,401,o),
(775,488,o),
(873,488,cs),
(933,488,o),
(978,468,o),
(1007,423,c),
(1007,445,l),
(978,482,o),
(935,504,o),
(873,504,cs),
(744,504,o),
(650,397,o),
(650,249,c),
(650,101,o),
(728,-15,o),
(867,-15,cs)
);
},
{
closed = 1;
nodes = (
(1016,0,l),
(1016,756,ls),
(1016,762,o),
(1011,765,o),
(1007,760,cs),
(1000,752,l),
(1000,0,l)
);
},
{
closed = 1;
nodes = (
(1172,0,o),
(1095,108,o),
(1095,246,cs),
(1095,384,o),
(1172,490,o),
(1293,490,cs),
(1414,490,o),
(1491,384,o),
(1491,246,cs),
(1491,108,o),
(1414,0,o),
(1293,0,cs)
);
},
{
closed = 1;
nodes = (
(1562,0,l),
(1562,10,l),
(1546,19,l),
(1546,13,o),
(1543,12,o),
(1538,12,c),
(1517,12,ls),
(1513,12,o),
(1510,10,o),
(1510,6,cs),
(1510,6,ls),
(1510,2,o),
(1513,0,o),
(1517,0,cs)
);
},
{
closed = 1;
nodes = (
(1591,0,ls),
(1595,0,o),
(1598,2,o),
(1598,6,cs),
(1598,6,ls),
(1598,10,o),
(1595,12,o),
(1591,12,cs),
(1570,12,l),
(1565,12,o),
(1562,13,o),
(1562,19,c),
(1546,10,l),
(1546,0,l)
);
},
{
closed = 1;
nodes = (
(1562,0,l),
(1562,504,l),
(1546,504,l),
(1546,0,l)
);
},
{
closed = 1;
nodes = (
(1562,297,l),
(1562,383,o),
(1607,494,o),
(1676,494,cs),
(1728,494,o),
(1774,465,o),
(1774,416,c),
(1790,416,l),
(1790,472,o),
(1738,505,o),
(1676,505,cs),
(1597,505,o),
(1546,393,o),
(1546,297,c)
);
},
{
closed = 1;
nodes = (
(1780,394,o),
(1790,404,o),
(1790,416,cs),
(1790,428,o),
(1780,438,o),
(1768,438,cs),
(1756,438,o),
(1746,428,o),
(1746,416,cs),
(1746,405,o),
(1756,394,o),
(1768,394,cs)
);
},
{
closed = 1;
nodes = (
(2197,264,l),
(2190,402,o),
(2128,506,o),
(2005,506,cs),
(1882,506,o),
(1820,402,o),
(1813,264,cs),
(1813,246,ls),
(1813,99,o),
(1877,-14,o),
(2005,-14,cs),
(2062,-14,o),
(2111,9,o),
(2147,47,c),
(2137,57,l),
(2104,21,o),
(2059,0,o),
(2005,0,cs),
(1884,0,o),
(1827,108,o),
(1827,246,cs),
(1827,264,ls),
(1834,393,o),
(1889,490,o),
(2005,490,cs),
(2121,490,o),
(2176,393,o),
(2183,264,c)
);
},
{
closed = 1;
nodes = (
(1824,264,l),
(2183,264,l),
(2183,277,l),
(1824,277,l)
);
},
{
closed = 1;
nodes = (
(1045,0,ls),
(1049,0,o),
(1052,2,o),
(1052,6,cs),
(1052,6,ls),
(1052,10,o),
(1049,12,o),
(1045,12,cs),
(1024,12,l),
(1019,12,o),
(1016,13,o),
(1016,19,c),
(1000,10,l),
(1000,0,l)
);
},
{
closed = 1;
nodes = (
(992,758,o),
(987,752,o),
(971,752,cs),
(967,752,o),
(964,750,o),
(964,746,cs),
(964,746,ls),
(964,742,o),
(967,740,o),
(971,740,cs),
(992,740,l),
(997,740,o),
(1000,739,o),
(1000,733,c),
(1016,742,l),
(1016,760,ls),
(1016,765,o),
(1008,770,o),
(1004,767,cs)
);
},
{
closed = 1;
nodes = (
(356,732,l),
(326,732,l),
(339,732,l),
(576,0,l),
(596,0,l),
(356,732,l),
(343,732,l),
(323,732,l),
(47,0,l),
(67,0,l),
(343,732,l)
);
},
{
closed = 1;
nodes = (
(330,748,o),
(327,742,o),
(311,742,cs),
(307,742,o),
(304,740,o),
(304,736,cs),
(304,736,ls),
(304,732,o),
(307,730,o),
(311,730,cs),
(325,730,l),
(330,730,o),
(322,726,o),
(322,720,c),
(356,732,l),
(350,750,ls),
(349,754,o),
(342,762,o),
(338,757,cs)
);
},
{
closed = 1;
nodes = (
(586,0,l),
(586,10,l),
(570,19,l),
(572,13,o),
(567,12,o),
(562,12,c),
(541,12,ls),
(537,12,o),
(534,10,o),
(534,6,cs),
(534,6,ls),
(534,2,o),
(537,0,o),
(541,0,cs)
);
},
{
closed = 1;
nodes = (
(619,0,ls),
(623,0,o),
(626,2,o),
(626,6,cs),
(626,6,ls),
(626,10,o),
(623,12,o),
(619,12,cs),
(598,12,l),
(593,12,o),
(592,13,o),
(590,19,c),
(574,10,l),
(574,0,l)
);
},
{
closed = 1;
nodes = (
(107,0,o),
(110,2,o),
(110,6,cs),
(110,6,ls),
(110,10,o),
(107,12,o),
(103,12,cs),
(82,12,l),
(77,12,o),
(72,13,o),
(74,19,c),
(58,10,l),
(58,0,l),
(103,0,ls)
);
},
{
closed = 1;
nodes = (
(70,10,l),
(54,19,l),
(52,13,o),
(51,12,o),
(46,12,c),
(25,12,ls),
(21,12,o),
(18,10,o),
(18,6,cs),
(18,6,ls),
(18,2,o),
(21,0,o),
(25,0,cs),
(70,0,l)
);
},
{
closed = 1;
nodes = (
(156,264,l),
(494,264,l),
(494,277,l),
(156,277,l)
);
}
);
width = 2370;
}
);
},
{
glyphname = adore.italic;
lastChange = "2025-03-10 02:29:41 +0000";
layers = (
{
hints = (
{
name = _corner.rightBottomSerif;
options = 1;
origin = (1,19);
scale = (-1,-1);
type = Corner;
},
{
name = _corner.rightBottomSerif;
origin = (9,0);
scale = (1,-1);
type = Corner;
},
{
name = _corner.leftBottomSerif;
options = 1;
origin = (9,1);
scale = (1,-1);
type = Corner;
},
{
name = _corner.leftBottomSerif;
origin = (9,9);
type = Corner;
},
{
name = _corner.rightBottomSerif;
options = 1;
origin = (9,10);
type = Corner;
}
);
layerId = m01;
shapes = (
{
closed = 1;
nodes = (
(1210,376,l),
(1158,149,l)
);
},
{
closed = 1;
nodes = (
(1326,652,ls),
(1344,739,o),
(1367,780,o),
(1280,738,cs),
(1253,726,o),
(1208,699,o),
(1198,694,cs),
(1177,683,o),
(1190,665,o),
(1207,674,cs),
(1241,692,o),
(1261,705,o),
(1247,644,cs),
(1245,636,l),
(1246,636,l),
(1102,10,ls),
(1101,4,o),
(1104,0,o),
(1110,0,cs),
(1175,0,l),
(1322,636,l)
);
},
{
closed = 1;
nodes = (
(1168,155,l),
(1124,101,o),
(1038,29,o),
(972,29,cs),
(884,29,o),
(852,96,o),
(887,249,cs),
(922,401,o),
(995,465,o),
(1079,465,cs),
(1144,465,o),
(1187,420,o),
(1201,326,c),
(1232,340,l),
(1215,412,o),
(1189,504,o),
(1089,504,cs),
(960,504,o),
(841,397,o),
(807,249,c),
(773,101,o),
(835,-10,o),
(964,-10,cs),
(1029,-10,o),
(1118,56,o),
(1175,108,c)
);
},
{
closed = 1;
nodes = (
(1644,103,o),
(1573,25,o),
(1508,25,cs),
(1443,25,o),
(1408,103,o),
(1441,246,cs),
(1474,390,o),
(1545,467,o),
(1610,467,cs),
(1675,467,o),
(1710,390,o),
(1677,246,cs)
);
},
{
closed = 1;
nodes = (
(1323,99,o),
(1391,-14,o),
(1499,-14,cs),
(1607,-14,o),
(1727,99,o),
(1761,246,cs),
(1795,393,o),
(1727,506,o),
(1619,506,cs),
(1511,506,o),
(1391,393,o),
(1357,246,cs)
);
},
{
closed = 1;
nodes = (
(1836,0,l),
(1911,0,l),
(2005,407,l),
(2023,494,o),
(2046,535,o),
(1959,493,c),
(1932,481,o),
(1887,454,o),
(1877,449,cs),
(1856,438,o),
(1869,420,o),
(1886,429,cs),
(1920,447,o),
(1940,460,o),
(1926,399,c)
);
},
{
closed = 1;
nodes = (
(2170,420,o),
(2193,439,o),
(2199,463,cs),
(2204,486,o),
(2189,505,o),
(2166,505,cs),
(2135,505,o),
(2104,492,o),
(2081,478,cs),
(2051,460,o),
(1998,380,o),
(1986,330,c),
(1981,308,l),
(2005,347,o),
(2043,427,o),
(2073,434,cs),
(2094,439,o),
(2121,421,o),
(2147,420,c)
);
},
{
closed = 1;
nodes = (
(2587,421,o),
(2515,530,o),
(2376,496,cs),
(2266,469,o),
(2188,378,o),
(2155,236,cs),
(2121,88,o),
(2190,-20,o),
(2319,-20,cs),
(2391,-20,o),
(2448,16,o),
(2499,60,cs),
(2519,77,o),
(2501,102,o),
(2482,84,cs),
(2428,34,o),
(2362,26,o),
(2330,26,cs),
(2276,26,o),
(2193,44,o),
(2237,235,cs),
(2244,264,l),
(2346,244,o),
(2466,289,o),
(2531,360,cs)
);
},
{
closed = 1;
nodes = (
(2281,373,o),
(2321,437,o),
(2385,454,cs),
(2487,481,o),
(2530,414,o),
(2487,369,cs),
(2420,298,o),
(2335,286,o),
(2255,299,c)
);
},
{
closed = 1;
nodes = (
(626,0,l),
(707,0,l),
(643,661,ls),
(638,720,o),
(641,762,o),
(611,762,cs),
(565,762,o),
(545,695,o),
(517,649,cs),
(120,0,l),
(175,0,l),
(592,689,l),
(566,689,l)
);
},
{
closed = 1;
nodes = (
(304,242,l),
(617,242,l),
(626,281,l),
(313,281,l)
);
},
{
closed = 1;
nodes = (
(576,667,l),
(608,660,l),
(626,747,o),
(649,788,o),
(562,746,c),
(535,734,o),
(490,707,o),
(480,702,cs),
(459,691,o),
(472,673,o),
(489,682,cs),
(523,700,o),
(548,707,o),
(517,649,c),
(527,644,l)
);
}
);
width = 2565;
}
);
},
{
glyphname = adore.mono;
lastChange = "2025-03-09 14:56:59 +0000";
layers = (
{
hints = (
{
name = _corner.rightBottomSerif;
origin = (3,0);
type = Corner;
},
{
name = _cap.flag;
origin = (3,1);
type = Cap;
}
);
layerId = m01;
shapes = (
{
closed = 1;
nodes = (
(1430,-14,o),
(1534,99,o),
(1534,246,cs),
(1534,393,o),
(1430,506,o),
(1302,506,cs),
(1174,506,o),
(1070,393,o),
(1070,246,cs),
(1070,99,o),
(1174,-14,o),
(1302,-14,cs)
);
},
{
closed = 1;
nodes = (
(843,-10,o),
(916,56,o),
(961,108,c),
(944,155,l),
(912,101,o),
(843,29,o),
(777,29,cs),
(689,29,o),
(641,96,o),
(641,249,cs),
(641,401,o),
(699,465,o),
(783,465,cs),
(848,465,o),
(901,420,o),
(937,326,c),
(965,340,l),
(931,412,o),
(884,504,o),
(784,504,cs),
(655,504,o),
(561,397,o),
(561,249,c),
(561,101,o),
(649,-10,o),
(778,-10,cs)
);
},
{
closed = 1;
nodes = (
(925,376,l),
(925,149,l)
);
},
{
closed = 1;
nodes = (
(986,0,l),
(986,752,l),
(911,752,l),
(911,10,ls),
(911,4,o),
(915,0,o),
(921,0,cs)
);
},
{
closed = 1;
nodes = (
(1217,25,o),
(1150,74,o),
(1150,246,cs),
(1150,418,o),
(1217,467,o),
(1302,467,cs),
(1387,467,o),
(1454,418,o),
(1454,246,cs),
(1454,74,o),
(1387,25,o),
(1302,25,cs)
);
},
{
closed = 1;
nodes = (
(1670,0,o),
(1708,5,o),
(1744,5,c),
(1708,84,l),
(1708,38,o),
(1670,32,o),
(1631,32,c),
(1610,32,o),
(1610,0,o),
(1631,0,c)
);
},
{
closed = 1;
nodes = (
(1747,5,l),
(1783,5,o),
(1821,0,o),
(1860,0,c),
(1881,0,o),
(1881,32,o),
(1860,32,c),
(1821,32,o),
(1783,38,o),
(1783,84,c),
(1783,404,l),
(1783,438,o),
(1783,467,o),
(1783,488,c),
(1783,501,o),
(1777,504,o),
(1767,504,c),
(1752,504,o),
(1736,491,o),
(1719,478,c),
(1696,460,o),
(1664,457,o),
(1653,457,c),
(1642,457,o),
(1636,448,o),
(1636,441,c),
(1636,435,o),
(1642,426,o),
(1653,426,c),
(1692,426,o),
(1708,415,o),
(1708,379,c),
(1708,5,l)
);
},
{
closed = 1;
nodes = (
(2417,-13,o),
(2489,24,o),
(2527,67,cs),
(2542,83,o),
(2520,108,o),
(2504,91,cs),
(2459,45,o),
(2385,33,o),
(2345,33,c),
(2291,33,o),
(2184,51,o),
(2184,242,cs),
(2184,408,o),
(2254,461,o),
(2332,461,cs),
(2421,461,o),
(2464,412,o),
(2467,271,c),
(2541,271,l),
(2541,394,o),
(2458,504,o),
(2333,504,cs),
(2204,504,o),
(2082,385,o),
(2102,243,cs),
(2123,96,o),
(2216,-13,o),
(2345,-13,cs)
);
},
{
closed = 1;
nodes = (
(2478,271,l),
(2478,306,l),
(2178,306,l),
(2178,271,l)
);
},
{
closed = 1;
nodes = (
(1915,363,o),
(1946,348,o),
(1970,353,cs),
(1993,358,o),
(2004,379,o),
(2004,403,cs),
(2004,447,o),
(1920,500,o),
(1855,477,cs),
(1776,449,o),
(1758,351,o),
(1752,265,c),
(1783,248,l),
(1783,310,o),
(1783,411,o),
(1852,438,cs),
(1901,457,o),
(1930,437,o),
(1920,388,cs)
);
},
{
closed = 1;
nodes = (
(219,0,o),
(219,32,o),
(198,32,cs),
(169,32,o),
(142,37,o),
(151,84,c),
(292,632,l),
(404,75,l),
(408,37,o),
(383,33,o),
(356,33,cs),
(335,33,o),
(335,1,o),
(356,1,cs),
(385,1,o),
(403,6,o),
(439,6,cs),
(448,6,ls),
(484,6,o),
(502,1,o),
(531,1,cs),
(552,1,o),
(552,33,o),
(531,33,cs),
(506,33,o),
(495,37,o),
(487,66,c),
(363,661,ls),
(344,751,o),
(339,762,o),
(309,762,cs),
(285,762,o),
(282,742,o),
(265,729,cs),
(242,711,o),
(215,708,o),
(204,708,cs),
(194,708,o),
(189,702,o),
(189,695,cs),
(189,689,o),
(194,682,o),
(204,682,cs),
(243,682,o),
(246,665,o),
(242,649,cs),
(96,82,l),
(82,36,o),
(76,32,o),
(47,32,cs),
(26,32,o),
(26,0,o),
(47,0,cs),
(123,3,l),
(198,0,ls)
);
},
{
closed = 1;
nodes = (
(166,242,l),
(416,242,l),
(416,281,l),
(166,281,l)
);
},
{
closed = 0;
nodes = (
(1788,-448,l),
(1809,-448,o),
(1809,-416,o),
(1788,-416,c)
);
}
);
width = 2330;
}
);
},
{
glyphname = adore.raw;
lastChange = "2025-03-09 13:43:57 +0000";
layers = (
{
hints = (
{
name = _corner.rightBottomSerif;
origin = (0,0);
type = Corner;
},
{
name = _corner.rightBottomSerif;
origin = (4,5);
type = Corner;
},
{
name = _cap.flag;
origin = (4,6);
type = Cap;
},
{
name = _corner.leftBottomSerif;
origin = (8,1);
type = Corner;
},
{
name = _corner.rightBottomSerif;
origin = (8,2);
type = Corner;
},
{
name = _cap.flag;
origin = (8,3);
type = Cap;
}
);
layerId = m01;
shapes = (
{
closed = 1;
nodes = (
(405,0,l),
(405,394,ls),
(405,475,o),
(311,505,o),
(248,505,cs),
(172,505,o),
(76,449,o),
(76,369,cs),
(76,344,o),
(92,329,o),
(116,329,cs),
(139,329,o),
(154,344,o),
(154,369,cs),
(154,381,o),
(146,389,o),
(146,401,cs),
(146,437,o),
(188,470,o),
(241,470,cs),
(295,470,o),
(330,445,o),
(330,383,cs),
(330,10,ls),
(330,4,o),
(334,0,o),
(340,0,cs)
);
},
{
closed = 1;
nodes = (
(344,109,l),
(280,59,o),
(229,35,o),
(194,32,cs),
(158,29,o),
(132,59,o),
(132,113,cs),
(132,169,o),
(158,199,o),
(200,225,cs),
(233,245,o),
(271,255,o),
(350,279,c),
(344,316,l),
(288,298,o),
(235,280,o),
(192,265,cs),
(107,236,o),
(50,183,o),
(50,96,cs),
(50,37,o),
(106,-16,o),
(162,-17,cs),
(239,-19,o),
(310,41,o),
(359,87,c)
);
},
{
closed = 0;
nodes = (
(235,244,l),
(238,237,o),
(234,252,o),
(236,245,cs)
);
},
{
closed = 1;
nodes = (
(879,376,l),
(879,149,l)
);
},
{
closed = 1;
nodes = (
(855,752,l),
(855,10,ls),
(855,4,o),
(859,0,o),
(865,0,cs),
(930,0,l),
(930,752,l)
);
},
{
closed = 1;
nodes = (
(888,155,l),
(856,101,o),
(787,29,o),
(721,29,cs),
(633,29,o),
(585,96,o),
(585,249,cs),
(585,401,o),
(643,465,o),
(727,465,cs),
(792,465,o),
(845,420,o),
(881,326,c),
(909,340,l),
(875,412,o),
(828,504,o),
(728,504,cs),
(599,504,o),
(505,397,o),
(505,249,c),
(505,101,o),
(593,-10,o),
(722,-10,cs),
(787,-10,o),
(860,56,o),
(905,108,c)
);
},
{
closed = 1;
nodes = (
(1410,74,o),
(1343,25,o),
(1258,25,cs),
(1173,25,o),
(1106,74,o),
(1106,246,cs),
(1106,418,o),
(1173,467,o),
(1258,467,cs),
(1343,467,o),
(1410,418,o),
(1410,246,cs)
);
},
{
closed = 1;
nodes = (
(1026,99,o),
(1130,-14,o),
(1258,-14,cs),
(1386,-14,o),
(1490,99,o),
(1490,246,cs),
(1490,393,o),
(1386,506,o),
(1258,506,cs),
(1130,506,o),
(1026,393,o),
(1026,246,cs)
);
},
{
closed = 1;
nodes = (
(1591,504,l),
(1591,0,l),
(1666,0,l),
(1666,504,l)
);
},
{
closed = 1;
nodes = (
(1828,420,o),
(1847,439,o),
(1847,463,cs),
(1847,486,o),
(1828,505,o),
(1805,505,cs),
(1774,505,o),
(1746,492,o),
(1726,478,cs),
(1700,460,o),
(1683,438,o),
(1660,408,c),
(1660,386,l),
(1683,409,o),
(1700,427,o),
(1728,434,cs),
(1748,439,o),
(1779,421,o),
(1805,420,c)
);
},
{
closed = 1;
nodes = (
(2275,387,o),
(2212,497,o),
(2087,497,cs),
(1958,497,o),
(1876,378,o),
(1876,236,cs),
(1876,88,o),
(1970,-20,o),
(2099,-20,cs),
(2171,-20,o),
(2220,16,o),
(2261,60,cs),
(2277,77,o),
(2253,102,o),
(2238,84,cs),
(2196,34,o),
(2131,26,o),
(2099,26,c),
(2045,26,o),
(1958,44,o),
(1958,235,cs),
(1958,401,o),
(2008,454,o),
(2086,454,cs),
(2175,454,o),
(2198,405,o),
(2201,264,c),
(2275,264,l)
);
},
{
closed = 1;
nodes = (
(1952,264,l),
(2212,264,l),
(2212,299,l),
(1952,299,l)
);
}
);
width = 2376;
}
);
},
{
glyphname = adore.stencil;
lastChange = "2025-03-09 14:55:55 +0000";
layers = (
{
hints = (
{
name = _corner.rightBottomSerif;
origin = (3,0);
type = Corner;
},
{
name = _cap.flag;
origin = (3,1);
type = Cap;
},
{
name = _corner.leftBottomSerif;
origin = (6,3);
type = Corner;
},
{
name = _corner.rightBottomSerif;
origin = (6,0);
type = Corner;
},
{
name = _cap.flag;
origin = (6,1);
type = Cap;
},
{
name = _corner.rightBottomSerif;
origin = (0,0);
scale = (1,-1);
type = Corner;
},
{
name = _corner.leftBottomSerif;
options = 1;
origin = (0,1);
scale = (1,-1);
type = Corner;
},
{
name = _corner.leftBottomSerif;
origin = (11,4);
type = Corner;
},
{
name = _corner.rightBottomSerif;
options = 1;
origin = (11,5);
type = Corner;
}
);
layerId = m01;
shapes = (
{
closed = 1;
nodes = (
(588,50,l),
(669,50,l),
(453,711,ls),
(434,770,o),
(427,812,o),
(397,812,cs),
(379,812,o),
(373,801,o),
(363,790,cs),
(358,783,o),
(357,777,o),
(359,769,cs)
);
},
{
closed = 1;
nodes = (
(444,292,ls),
(455,292,o),
(459,299,o),
(456,309,cs),
(453,319,ls),
(450,328,o),
(444,331,o),
(436,331,cs),
(317,331,ls),
(309,331,o),
(303,328,o),
(300,319,cs),
(297,309,ls),
(294,299,o),
(298,292,o),
(309,292,cs)
);
},
{
closed = 1;
nodes = (
(959,40,o),
(985,49,o),
(1010,64,cs),
(1016,67,o),
(1018,72,o),
(1018,78,cs),
(1018,94,ls),
(1018,104,o),
(1012,107,o),
(1004,102,cs),
(982,88,o),
(958,79,o),
(934,79,cs),
(846,79,o),
(798,146,o),
(798,299,cs),
(798,451,o),
(856,515,o),
(940,515,cs),
(963,515,o),
(984,510,o),
(1004,499,cs),
(1012,494,o),
(1018,498,o),
(1018,507,cs),
(1018,523,ls),
(1018,529,o),
(1016,534,o),
(1010,537,cs),
(990,548,o),
(967,554,o),
(941,554,cs),
(812,554,o),
(718,447,o),
(718,299,c),
(718,151,o),
(806,40,o),
(935,40,cs)
);
},
{
closed = 1;
nodes = (
(1143,50,l),
(1143,802,l),
(1068,802,l),
(1068,60,ls),
(1068,54,o),
(1072,50,o),
(1078,50,cs)
);
},
{
closed = 1;
nodes = (
(1433,38,o),
(1434,38,o),
(1434,38,c),
(1434,77,l),
(1434,77,o),
(1434,77,o),
(1434,77,cs),
(1361,86,o),
(1307,142,o),
(1307,296,cs),
(1307,440,o),
(1354,499,o),
(1421,513,cs),
(1429,515,o),
(1434,520,o),
(1434,529,cs),
(1434,542,l),
(1434,550,o),
(1430,554,o),
(1422,553,cs),
(1335,545,o),
(1227,443,o),
(1227,296,cs),
(1227,160,o),
(1317,53,o),
(1432,38,cs)
);
},
{
closed = 1;
nodes = (
(1484,38,o),
(1485,38,o),
(1486,38,cs),
(1601,53,o),
(1691,160,o),
(1691,296,cs),
(1691,433,o),
(1599,537,o),
(1497,552,cs),
(1489,554,o),
(1484,549,o),
(1484,541,cs),
(1484,526,ls),
(1484,519,o),
(1487,515,o),
(1494,513,cs),
(1553,497,o),
(1611,433,o),
(1611,296,cs),
(1611,142,o),
(1557,86,o),
(1484,77,cs),
(1484,77,o),
(1484,77,o),
(1484,77,c),
(1484,38,l)
);
},
{
closed = 1;
nodes = (
(1872,50,l),
(1872,554,l),
(1797,554,l),
(1797,50,l)
);
},
{
closed = 1;
nodes = (
(2034,470,o),
(2053,489,o),
(2053,513,cs),
(2053,536,o),
(2034,555,o),
(2011,555,cs),
(1980,555,o),
(1952,542,o),
(1932,528,c),
(1930,526,ls),
(1925,522,o),
(1922,518,o),
(1922,512,cs),
(1922,494,ls),
(1922,486,o),
(1926,481,o),
(1934,484,cs),
(1934,484,l),
(1954,489,o),
(1985,471,o),
(2011,470,cs)
);
},
{
closed = 1;
nodes = (
(2342,37,o),
(2394,74,o),
(2432,117,cs),
(2447,133,o),
(2425,158,o),
(2409,141,cs),
(2364,95,o),
(2310,83,o),
(2270,83,c),
(2216,83,o),
(2129,101,o),
(2129,292,cs),
(2129,432,o),
(2164,491,o),
(2223,507,cs),
(2229,509,o),
(2233,513,o),
(2233,520,cs),
(2233,540,ls),
(2233,548,o),
(2229,552,o),
(2221,551,cs),
(2127,542,o),
(2047,421,o),
(2047,293,cs),
(2047,145,o),
(2141,37,o),
(2270,37,cs)
);
},
{
closed = 1;
nodes = (
(2310,321,ls),
(2317,321,o),
(2322,326,o),
(2322,333,cs),
(2322,344,ls),
(2322,351,o),
(2317,356,o),
(2310,356,cs),
(2123,356,l),
(2123,321,l)
);
},
{
closed = 1;
nodes = (
(2434,321,ls),
(2442,321,o),
(2446,325,o),
(2445,333,cs),
(2438,444,o),
(2379,536,o),
(2296,550,cs),
(2288,552,o),
(2283,547,o),
(2283,539,cs),
(2283,509,l),
(2283,509,o),
(2283,509,o),
(2283,509,cs),
(2346,499,o),
(2367,442,o),
(2372,333,cs),
(2372,325,o),
(2377,321,o),
(2384,321,cs)
);
},
{
closed = 1;
nodes = (
(340,672,ls),
(336,686,o),
(326,686,o),
(321,672,cs),
(105,50,l),
(160,50,l),
(353,614,ls),
(355,621,o),
(355,627,o),
(353,634,cs)
);
}
);
width = 2496;
}
);
},
{
glyphname = adore.wedge;
lastChange = "2025-03-09 14:59:24 +0000";
layers = (
{
layerId = m01;
shapes = (
{
closed = 1;
nodes = (
(159,0,l),
(417,689,l),
(391,689,l),
(610,0,l),
(691,0,l),
(444,752,l),
(397,715,l),
(124,0,l)
);
},
{
closed = 1;
nodes = (
(124,0,l),
(143,48,l),
(64,8,l),
(64,0,l)
);
},
{
closed = 1;
nodes = (
(250,0,l),
(250,8,l),
(177,48,l),
(159,0,l)
);
},
{
closed = 1;
nodes = (
(610,0,l),
(595,48,l),
(519,8,l),
(519,0,l)
);
},
{
closed = 1;
nodes = (
(546,242,l),
(546,281,l),
(233,281,l),
(233,242,l)
);
},
{
closed = 1;
nodes = (
(751,0,l),
(751,8,l),
(675,48,l),
(691,0,l)
);
},
{
closed = 1;
nodes = (
(444,684,l),
(444,752,l),
(299,692,l),
(299,684,l)
);
},
{
closed = 1;
nodes = (
(1014,-1,o),
(1087,64,o),
(1129,111,c),
(1114,151,l),
(1080,93,o),
(1011,20,o),
(947,20,cs),
(861,20,o),
(811,91,o),
(811,249,cs),
(811,406,o),
(871,474,o),
(953,474,cs),
(1015,474,o),
(1067,430,o),
(1105,333,c),
(1130,346,l),
(1098,413,o),
(1052,495,o),
(954,495,cs),
(823,495,o),
(731,391,o),
(731,249,cs),
(731,107,o),
(817,-1,o),
(948,-1,cs)
);
},
{
closed = 1;
nodes = (
(1226,0,l),
(1226,8,l),
(1156,48,l),
(1156,0,l)
);
},
{
closed = 1;
nodes = (
(1226,0,l),
(1226,8,l),
(1156,48,l),
(1156,0,l)
);
},
{
closed = 1;
nodes = (
(1095,376,l),
(1095,149,l)
);
},
{
closed = 1;
nodes = (
(1156,0,l),
(1156,743,l),
(1011,683,l),
(1011,675,l),
(1081,675,l),
(1081,0,l)
);
},
{
closed = 1;
nodes = (
(1602,-5,o),
(1704,105,o),
(1704,246,cs),
(1704,387,o),
(1602,497,o),
(1472,497,cs),
(1342,497,o),
(1240,387,o),
(1240,246,cs),
(1240,105,o),
(1342,-5,o),
(1472,-5,cs)
);
},
{
closed = 1;
nodes = (
(1390,16,o),
(1320,67,o),
(1320,246,cs),
(1320,425,o),
(1390,476,o),
(1472,476,cs),
(1554,476,o),
(1624,425,o),
(1624,246,cs),
(1624,67,o),
(1554,16,o),
(1472,16,cs)
);
},
{
closed = 1;
nodes = (
(1810,0,l),
(1810,48,l),
(1740,8,l),
(1740,0,l)
);
},
{
closed = 0;
nodes = (
(1740,8,l),
(1810,48,l)
);
},
{
closed = 1;
nodes = (
(1955,0,l),
(1955,8,l),
(1885,48,l),
(1885,0,l)
);
},
{
closed = 0;
nodes = (
(1955,8,l),
(1885,48,l)
);
},
{
closed = 1;
nodes = (
(1885,0,l),
(1885,495,l),
(1810,449,l),
(1810,0,l)
);
},
{
closed = 1;
nodes = (
(1885,427,l),
(1885,495,l),
(1740,435,l),
(1740,427,l)
);
},
{
closed = 1;
nodes = (
(1905,418,o),
(1923,437,o),
(1947,443,cs),
(1959,446,o),
(1971,441,o),
(1988,436,cs),
(1999,433,o),
(2012,429,o),
(2024,429,cs),
(2049,429,o),
(2066,446,o),
(2066,463,cs),
(2066,479,o),
(2049,496,o),
(2024,496,cs),
(1991,496,o),
(1962,483,o),
(1945,471,cs),
(1915,450,o),
(1899,429,o),
(1879,403,c),
(1879,392,l)
);
},
{
closed = 1;
nodes = (
(2358,-4,o),
(2411,33,o),
(2446,73,c),
(2432,85,l),
(2382,34,o),
(2321,24,o),
(2284,24,cs),
(2231,24,o),
(2143,44,o),
(2143,242,cs),
(2143,414,o),
(2196,470,o),
(2271,470,cs),
(2357,470,o),
(2382,418,o),
(2386,280,c),
(2460,280,l),
(2457,394,o),
(2396,495,o),
(2272,495,cs),
(2141,495,o),
(2061,379,o),
(2061,243,cs),
(2061,101,o),
(2153,-4,o),
(2284,-4,cs)
);
},
{
closed = 1;
nodes = (
(2397,280,l),
(2397,297,l),
(2137,297,l),
(2137,280,l)
);
}
